<?xml version="1.0" encoding="utf-8"?>
<!-- Generator: Adobe Illustrator 16.0.3, SVG Export Plug-In . SVG Version: 6.00 Build 0)  -->
<!DOCTYPE svg PUBLIC "-//W3C//DTD SVG 1.1//EN" "http://www.w3.org/Graphics/SVG/1.1/DTD/svg11.dtd">
<svg version="1.1" xmlns="http://www.w3.org/2000/svg" xmlns:xlink="http://www.w3.org/1999/xlink" x="0px" y="0px" width="418px"
	 height="480px" viewBox="0 0 418 480" enable-background="new 0 0 418 480" xml:space="preserve">
<g id="concept" display="none">
	
		<image display="inline" overflow="visible" width="700" height="490" xlink:href="C:\Users\Ferdinand\Downloads\factory-flat-icons-vector.jpg"  transform="matrix(0.72 0 0 0.72 -180.5225 180.4937)">
	</image>
</g>
<g id="Layer_2">
	<rect x="93.708" y="166.242" fill="#23F68C" width="91.799" height="115.292"/>
	<rect x="11" y="89" fill="#23F68C" width="43" height="294"/>
	<rect x="11" y="289" fill="#08C566" width="43" height="10"/>
	<rect x="11" y="341" fill="#08C566" width="43" height="10"/>
	<path fill="#23F68C" d="M390.523,365.75c45.188,69.916-136.523,0-136.523,0V166h94v65.041
		C348,231.041,345.336,295.838,390.523,365.75z"/>
	<polygon fill="#F6238D" points="367.685,321 260,321 260,222.514 190.493,262.586 189.25,222.514 116,263.438 116,222.514 
		48,263.438 48,383 260,383 260,480 418,480 418,367.457 	"/>
	<rect y="383" fill="#08C566" width="267" height="97"/>
	<rect x="11" y="189" fill="#08C566" width="43" height="12"/>
	<rect x="11" y="143" fill="#08C566" width="43" height="10"/>
	<rect x="11" y="91" fill="#08C566" width="43" height="11"/>
	<rect x="11" y="241" fill="#08C566" width="43" height="10"/>
	<rect x="73.246" y="292.428" fill="#BDCCD4" width="20.462" height="10.23"/>
	<rect x="73.246" y="306.922" fill="#BDCCD4" width="20.462" height="10.23"/>
	<rect x="73.246" y="321.416" fill="#BDCCD4" width="20.462" height="10.232"/>
	<rect x="73.246" y="335.911" fill="#BDCCD4" width="20.462" height="10.23"/>
	<rect x="73.246" y="350.403" fill="#BDCCD4" width="20.462" height="10.232"/>
	<rect x="99.676" y="292.428" fill="#BDCCD4" width="20.462" height="10.23"/>
	<rect x="99.676" y="306.922" fill="#BDCCD4" width="20.462" height="10.23"/>
	<rect x="15.731" y="396.823" fill="#BDCCD4" width="27.111" height="10.232"/>
	<rect x="15.731" y="411.318" fill="#BDCCD4" width="27.111" height="10.232"/>
	<rect x="50.771" y="396.823" fill="#BDCCD4" width="27.112" height="10.232"/>
	<rect x="50.771" y="411.318" fill="#BDCCD4" width="27.112" height="10.232"/>
	<rect x="85.812" y="396.823" fill="#BDCCD4" width="27.11" height="10.232"/>
	<rect x="85.812" y="411.318" fill="#BDCCD4" width="27.11" height="10.232"/>
	<rect x="120.852" y="396.823" fill="#BDCCD4" width="27.113" height="10.232"/>
	<rect x="120.852" y="411.318" fill="#BDCCD4" width="27.113" height="10.232"/>
	<rect x="155.892" y="396.823" fill="#BDCCD4" width="27.111" height="10.232"/>
	<rect x="155.892" y="411.318" fill="#BDCCD4" width="27.111" height="10.232"/>
	<rect x="190.931" y="396.823" fill="#BDCCD4" width="27.113" height="10.232"/>
	<rect x="190.931" y="411.318" fill="#BDCCD4" width="27.113" height="10.232"/>
	<rect x="225.973" y="396.823" fill="#BDCCD4" width="27.11" height="10.232"/>
	<rect x="225.973" y="411.318" fill="#BDCCD4" width="27.11" height="10.232"/>
	<rect x="281.666" y="388.298" fill="#BDCCD4" width="24.469" height="10.232"/>
	<rect x="281.666" y="402.792" fill="#BDCCD4" width="24.469" height="10.231"/>
	<rect x="313.291" y="388.298" fill="#BDCCD4" width="24.467" height="10.232"/>
	<rect x="313.291" y="402.792" fill="#BDCCD4" width="24.467" height="10.231"/>
	<rect x="344.912" y="388.298" fill="#BDCCD4" width="24.47" height="10.232"/>
	<rect x="344.912" y="402.792" fill="#BDCCD4" width="24.47" height="10.231"/>
	<rect x="281.666" y="351.257" fill="#BDCCD4" width="24.469" height="10.231"/>
	<rect x="281.666" y="365.75" fill="#BDCCD4" width="24.469" height="10.232"/>
	<rect x="313.291" y="351.257" fill="#BDCCD4" width="24.467" height="10.231"/>
	<rect x="313.291" y="365.75" fill="#BDCCD4" width="24.467" height="10.232"/>
	<rect x="344.912" y="351.257" fill="#BDCCD4" width="24.47" height="10.231"/>
	<rect x="344.912" y="365.75" fill="#BDCCD4" width="24.47" height="10.232"/>
	<rect x="15.731" y="432.254" fill="#BDCCD4" width="27.111" height="10.232"/>
	<rect x="15.731" y="446.749" fill="#BDCCD4" width="27.111" height="10.23"/>
	<rect x="50.771" y="432.254" fill="#BDCCD4" width="27.112" height="10.232"/>
	<rect x="50.771" y="446.749" fill="#BDCCD4" width="27.112" height="10.23"/>
	<rect x="85.812" y="432.254" fill="#BDCCD4" width="27.11" height="10.232"/>
	<rect x="85.812" y="446.749" fill="#BDCCD4" width="27.11" height="10.23"/>
	<rect x="120.852" y="432.254" fill="#BDCCD4" width="27.113" height="10.232"/>
	<rect x="120.852" y="446.749" fill="#BDCCD4" width="27.11" height="10.23"/>
	<rect x="155.892" y="432.254" fill="#BDCCD4" width="27.111" height="10.232"/>
	<rect x="155.892" y="446.749" fill="#BDCCD4" width="27.111" height="10.23"/>
	<rect x="190.931" y="432.254" fill="#BDCCD4" width="27.113" height="10.232"/>
	<rect x="190.931" y="446.749" fill="#BDCCD4" width="27.113" height="10.23"/>
	<rect x="225.973" y="432.254" fill="#BDCCD4" width="27.11" height="10.232"/>
	<rect x="225.973" y="446.749" fill="#BDCCD4" width="27.11" height="10.23"/>
	<rect x="99.676" y="321.416" fill="#BDCCD4" width="20.462" height="10.232"/>
	<rect x="99.676" y="335.911" fill="#BDCCD4" width="20.462" height="10.23"/>
	<rect x="99.676" y="350.403" fill="#BDCCD4" width="20.462" height="10.232"/>
	<rect x="138.613" y="292.428" fill="#BDCCD4" width="20.463" height="10.23"/>
	<rect x="138.613" y="306.922" fill="#BDCCD4" width="20.463" height="10.23"/>
	<rect x="138.613" y="321.416" fill="#BDCCD4" width="20.463" height="10.232"/>
	<rect x="138.613" y="335.911" fill="#BDCCD4" width="20.463" height="10.23"/>
	<rect x="138.613" y="350.403" fill="#BDCCD4" width="20.463" height="10.232"/>
	<rect x="165.044" y="292.428" fill="#BDCCD4" width="20.463" height="10.23"/>
	<rect x="165.044" y="306.922" fill="#BDCCD4" width="20.463" height="10.23"/>
	<rect x="165.044" y="321.416" fill="#BDCCD4" width="20.463" height="10.232"/>
	<rect x="165.044" y="335.911" fill="#BDCCD4" width="20.463" height="10.23"/>
	<rect x="165.044" y="350.403" fill="#BDCCD4" width="20.463" height="10.232"/>
	<rect x="204.264" y="292.428" fill="#BDCCD4" width="20.463" height="10.23"/>
	<rect x="204.264" y="306.922" fill="#BDCCD4" width="20.463" height="10.23"/>
	<rect x="204.264" y="321.416" fill="#BDCCD4" width="20.463" height="10.232"/>
	<rect x="204.264" y="335.911" fill="#BDCCD4" width="20.463" height="10.23"/>
	<rect x="204.264" y="350.403" fill="#BDCCD4" width="20.463" height="10.232"/>
	<rect x="230.694" y="292.428" fill="#BDCCD4" width="20.463" height="10.23"/>
	<rect x="230.694" y="306.922" fill="#BDCCD4" width="20.463" height="10.23"/>
	<rect x="230.694" y="321.416" fill="#BDCCD4" width="20.463" height="10.232"/>
	<rect x="230.694" y="335.911" fill="#BDCCD4" width="20.463" height="10.23"/>
	<rect x="230.694" y="350.403" fill="#BDCCD4" width="20.463" height="10.232"/>
	<rect x="281.666" y="449.59" fill="#08C566" width="12.234" height="30.41"/>
	<rect x="299.636" y="449.59" fill="#08C566" width="12.235" height="30.41"/>
	<rect x="317.608" y="449.59" fill="#08C566" width="12.234" height="30.41"/>
	<rect x="335.58" y="449.59" fill="#08C566" width="12.234" height="30.41"/>
	<rect x="353.55" y="449.59" fill="#08C566" width="12.235" height="30.41"/>
	<rect x="371.522" y="449.59" fill="#08C566" width="12.234" height="30.41"/>
	<rect x="389.493" y="449.59" fill="#08C566" width="12.235" height="30.41"/>
	<rect x="93.708" y="174.859" fill="#08C566" width="91.799" height="3.302"/>
	<rect x="93.708" y="182.318" fill="#08C566" width="91.799" height="3.303"/>
	<rect x="254.006" y="174.859" fill="#08C566" width="94.004" height="3.302"/>
	<rect x="254.006" y="182.318" fill="#08C566" width="94.004" height="3.303"/>
	<g>
		<g>
			<path fill="#08C566" d="M26.258,81.856c-3.548-27.774,41.448-28.314,59.61-29.291c15.603-0.839,31.193-6.855,44.292-15.151
				c6.6-4.179,12.606-9.321,17.678-15.26c4.16-4.871,9.417-12.105,9.383-18.803c-0.003-0.67-0.851-0.841-1.201-0.325
				c-2.091,3.08-3.291,6.777-5.179,10.012c-2.131,3.649-4.797,6.967-7.651,10.07c-6.13,6.664-13.714,11.881-21.639,16.173
				c-14.369,7.782-29.106,10.375-45.125,11.714c-16.921,1.414-56.82,5.171-51.274,31.01C25.285,82.619,26.339,82.488,26.258,81.856
				L26.258,81.856z"/>
		</g>
	</g>
	<g>
		<g>
			<path fill="#08C566" d="M106.28,158.507c-2.414-9.166-2.637-18.327,1.5-27.016c3.607-7.578,10.341-13.278,17.047-18.038
				c15.63-11.096,33.667-18.772,50.165-28.478c30.785-18.112,65.999-43.665,70.272-82.125c0.098-0.881-1.372-1.071-1.542-0.208
				c-8.309,42.155-44.951,67.085-80.063,86.845c-15.992,9-33.725,16.373-47.475,28.795c-11.988,10.83-15.119,25.146-10.74,40.456
				C105.598,159.275,106.423,159.049,106.28,158.507L106.28,158.507z"/>
		</g>
	</g>
	<g>
		<g>
			<path fill="#08C566" d="M136.513,158.875c-1.884-7.685-2.041-15.279,1.283-22.579c2.992-6.572,8.785-11.525,14.512-15.664
				c12.642-9.135,27.132-15.688,40.356-23.939c24.545-15.313,51.551-36.819,54.537-67.807c0.085-0.883-1.368-1.071-1.542-0.208
				c-3.335,16.544-11.068,30.238-22.791,42.301c-11.927,12.273-26.561,21.707-41.22,30.356
				c-12.78,7.542-26.999,13.789-37.795,24.202c-9.506,9.168-11.576,21.101-8.175,33.568
				C135.824,159.645,136.646,159.417,136.513,158.875L136.513,158.875z"/>
		</g>
	</g>
	<g>
		<g>
			<path fill="#08C566" d="M166.587,159.306c-2.729-12.838,2.042-22.355,12.202-30.08c8.888-6.758,18.993-11.892,28.18-18.243
				c17.446-12.062,35.833-28.991,37.287-51.599c0.057-0.885-1.356-1.072-1.542-0.208c-2.795,12.984-8.05,23.731-17.031,33.576
				c-8.393,9.199-18.765,16.418-29.188,23.107c-8.872,5.693-18.735,10.584-25.83,18.576c-6.348,7.15-7.153,16.12-4.913,25.102
				C165.887,160.082,166.703,159.849,166.587,159.306L166.587,159.306z"/>
		</g>
	</g>
	<g>
		<g>
			<path fill="#08C566" d="M266.718,158.106c-2.414-9.165-2.637-18.327,1.5-27.016c3.607-7.578,10.341-13.277,17.047-18.037
				c15.63-11.096,33.668-18.771,50.165-28.477c30.785-18.113,66-43.666,70.272-82.125c0.098-0.881-1.372-1.071-1.542-0.208
				c-8.308,42.155-44.951,67.085-80.063,86.846c-15.992,9-33.725,16.372-47.475,28.793c-11.987,10.829-15.119,25.146-10.739,40.455
				C266.036,158.874,266.861,158.648,266.718,158.106L266.718,158.106z"/>
		</g>
	</g>
	<g>
		<g>
			<path fill="#08C566" d="M296.951,158.476c-1.885-7.685-2.041-15.278,1.283-22.579c2.991-6.572,8.784-11.525,14.512-15.664
				c12.642-9.135,27.132-15.689,40.356-23.939c24.545-15.313,51.55-36.82,54.537-67.807c0.085-0.883-1.368-1.071-1.542-0.208
				c-3.336,16.543-11.068,30.237-22.791,42.301c-11.927,12.273-26.56,21.707-41.219,30.356
				c-12.781,7.541-26.999,13.79-37.796,24.203c-9.506,9.168-11.576,21.1-8.175,33.567
				C296.262,159.246,297.084,159.019,296.951,158.476L296.951,158.476z"/>
		</g>
	</g>
	<g>
		<g>
			<path fill="#08C566" d="M327.025,158.906c-2.729-12.838,2.042-22.354,12.201-30.08c8.888-6.758,18.993-11.893,28.18-18.244
				c17.447-12.061,35.834-28.99,37.288-51.598c0.057-0.885-1.356-1.072-1.542-0.208c-2.795,12.984-8.05,23.732-17.031,33.576
				c-8.393,9.199-18.766,16.418-29.19,23.106c-8.872,5.692-18.734,10.585-25.83,18.577c-6.347,7.15-7.152,16.119-4.912,25.101
				C326.325,159.682,327.141,159.449,327.025,158.906L327.025,158.906z"/>
		</g>
	</g>
</g>
</svg>
