<?xml version="1.0" encoding="utf-8"?>
<!-- Generator: Adobe Illustrator 16.0.3, SVG Export Plug-In . SVG Version: 6.00 Build 0)  -->
<!DOCTYPE svg PUBLIC "-//W3C//DTD SVG 1.1//EN" "http://www.w3.org/Graphics/SVG/1.1/DTD/svg11.dtd">
<svg version="1.1" id="Layer_1" xmlns="http://www.w3.org/2000/svg" xmlns:xlink="http://www.w3.org/1999/xlink" x="0px" y="0px"
	 width="400px" height="400px" viewBox="0 0 400 400" enable-background="new 0 0 400 400" xml:space="preserve">
<path d="M153.302,89.878c9.783,0.993,12.68-13.495,18.816-18.366c-1.937-0.25-3.874-0.499-5.811-0.749
	c3.071,5.971,0.921,14.663,7.423,18.86c7.462,4.816,15.603-0.5,22.106-4.444c3.077-1.866,6.561-4.418,10.257-4.709
	c0.346-0.027,4.236,4.33,5.248,5.093c8.524,6.43,16.171,4.336,22.977-3.084c-2.344-0.971-4.687-1.941-7.029-2.912
	c0.888,6.623,5.533,10.124,11.853,6.852c2.603-1.347,4.845-3.647,6.977-5.616c0.893-0.824,1.803-1.536,2.834-2.18
	c-0.218-0.136-0.46-0.097-0.728,0.116c1.051,0.466,2,1.506,2.895,2.211c3.477,2.745,7.017,3.018,11.161,1.691
	c1.118-0.357,6.235-1.727,3.54-2.118c1.804,0.262,3.597,0.555,5.408,0.766c4.037,0.471,7.785-1.118,11.551-2.231
	c4.735-1.4,10.572,5.586,13.54,8.258c3.29,2.962,9.599,0.156,7.933-4.618c-2.873-8.232-12.553-15.882-21.641-14.919
	c-3.627,0.384-6.621,2.59-10.219,2.999c-3.768,0.428-6.555,0.117-10.119,1.658c-1.543,0.667-3.128,1.679-4.832,1.875
	c-1.304,0.149-3.807-2.252-4.963-2.85c-3.01-1.557-5.836-1.16-8.41,0.833c-1.929,1.494-3.7,3.198-5.604,4.73
	c-1.085,0.874-2.257,1.623-3.482,2.279c-0.254,0.136,1.051,1.665,0.395-0.83c-0.731-2.78-4.882-4.271-6.883-1.817
	c-5.805,7.123-11.152,2.806-16.607-2.043c-4.574-4.065-10.107-1.338-14.792,1.057c-5.04,2.577-12.539,11.166-18.836,8.325
	c-2.67-1.205-2.861-6.192-3.242-8.635c-0.457-2.93-1.014-5.651-2.32-8.331c-0.815-1.672-3.527-2.471-5.062-1.328
	c-7.479,5.569-8.619,15.518-15.41,21.576C151.136,88.25,152.097,89.756,153.302,89.878L153.302,89.878z"/>
<path d="M154.521,129.893c5.605,10.1,14.043-1.208,17.782-6.755c1.366-2.026,2.71-4.071,4.27-5.956
	c2.206-2.667,4.333-1.789,6.734,0.096c6.463,5.074,12.347,3.602,18.769-0.72c1.994-1.342,3.853-2.579,6.213-3.2
	c2.257-0.593,4.967,0.124,7.268,0.125c5.509,0.002,10.94,1.143,16.288,2.328c2.282,0.506,4.476,1.399,6.8,1.867
	c0.962,0.194,5.468,1.403,4.727,0.571c1.27,1.424,3.497,1.896,5.282,2.213c5.274,0.936,10.776,0.926,16.109,1.297
	c4.587,0.319,12.71-0.14,14.992-4.839c1.308-2.692,0.369-6.524-2.941-7.23c-4.513-0.962-10.879,0.998-15.45,1.717
	c-2.758,0.434-5.575,0.233-8.349,0.04c-0.833-0.058-1.657-0.143-2.479-0.281c-1.478-0.249-1.606-0.911-0.605,0.193
	c-1.141-1.258-3.029-1.619-4.619-1.221c-11.81,2.958-23.584-4.555-35.423-2.825c-5.233,0.765-9.082,2.795-13.693,5.256
	c-5.478,2.924-8.064-1.205-12.603-3.176c-6.561-2.85-11.335,2.396-14.371,7.45c-1.841,3.063-3.481,6.236-5.439,9.229
	c-1.903,2.909-3.721,6.543-6.73,2.34C155.968,126.903,153.588,128.212,154.521,129.893L154.521,129.893z"/>
<path d="M152.687,168.334c4.581,1.668,8.126,0.188,11.645-2.873c1.95-1.697,3.675-3.667,6.215-4.461
	c2.723-0.851,4.74,1.985,6.689,3.314c2.079,1.418,4.415,2.351,6.956,2.481c3.889,0.199,6.247-1.734,9.73-3.007
	c2.665-0.975,5.486,1.125,8.134,1.265c3.325,0.177,6.233-0.584,9.179-2.101c2.528-1.302,4.716-3.278,7.174-4.717
	c3.264-1.91,6.178-1.127,9.539-0.123c2.745,0.82,5.534,1.193,8.392,0.972c4.199-0.325,7.974-2.262,12.225-2.39
	c3.454-0.104,6.913,1.097,10.324,1.515c3.816,0.467,7.665,0.652,11.463,1.26c7.298,1.167,14.15,2.939,21.081,5.412
	c4.686,1.671,9.112-5.45,5.018-8.618c-11.726-9.072-28.429-5.653-42.203-7.496c-3.159-0.423-6.359-0.568-9.52-0.075
	c-4.156,0.648-8.134,2.695-12.415,2.076c-6.075-0.879-10.83-3.02-16.837-0.072c-5.64,2.768-9.432,7.725-16.078,5.724
	c-2.771-0.835-6.054-0.587-8.733,0.41c-3.721,1.384-5.768,3.279-9.738,1.171c-4.285-2.274-7.677-4.864-12.756-2.637
	c-5.126,2.248-8.055,10.481-14.299,8.676C151.074,163.231,150.03,167.367,152.687,168.334L152.687,168.334z"/>
<path d="M12.727,223.691c5.324-3.69,10.814-6.923,17.446-7.032c5.683-0.093,11.323,2.452,16.34,4.827
	c5.072,2.399,9.981,5.105,15.136,7.335c5.218,2.257,10.672,2.535,16.258,3.085c12.771,1.258,23.309-4.167,35.481-6.544
	c6.256-1.223,9.595,2.643,15.048,4.475c4.617,1.551,9.432-1.574,13.464-3.368c11.845-5.268,26.429-1.418,38.995-2.298
	c13.915-0.975,27.756-1.552,41.715-1.625c6.891-0.036,13.715-0.582,20.586-1.05c6.861-0.468,13.785-0.138,20.666-0.627
	c10.231-0.729,24.42-1.482,31.894-9.501c0.999-1.073,0.353-3.063-1.243-3.001c-5.885,0.226-11.721,2.258-17.606,2.975
	c-6.124,0.745-12.343,1.21-18.489,1.758c-13.89,1.238-27.527-0.063-41.423-0.262c-13.938-0.2-27.517,1.331-41.384,1.999
	c-12.414,0.598-25.848-0.186-37.196,5.669c-2.215,1.143-5.364,2.665-7.956,1.994c-2.435-0.63-4.721-2.623-7.052-3.607
	c-4.86-2.054-10.183-0.982-15.094,0.367c-5.969,1.641-11.481,4.595-17.339,6.555c-6.837,2.288-14.173,2.048-20.997-0.051
	c-18.762-5.77-42.192-24.13-58.669-3.913C10.527,222.808,11.55,224.507,12.727,223.691L12.727,223.691z"/>
<path d="M10.975,278.535c5.163-0.222,8.507-1.897,12.453-5.144c4.922-4.048,10.112-7.883,16.738-8.342
	c4.622-0.32,8.892,2.588,12.79,4.661c5.166,2.747,10.663,4.954,16.266,6.624c12.021,3.583,24.953,4.598,37.44,4.541
	c13.191-0.06,25.735-2.865,38.672-5.031c7.528-1.261,15.118-1.954,22.668-3.036c5.511-0.79,8.076-0.684,13.403,1.291
	c4.398,1.63,8.486,3.775,13.206,4.291c5.98,0.653,12.885-1.912,18.249-4.273c5.332-2.348,10.421-5.056,16.178-6.227
	c6.949-1.414,15.309,0.637,22.285,1.245c12.528,1.093,25.475,3.53,37.972,1.167c2.919-0.552,5.442-3.008,7.393-5.091
	c1.77-1.889,0.737-6.113-2.361-5.701c-12.119,1.613-24.281,0.531-36.453-0.238c-12.96-0.819-26.866-1.965-39.225,2.827
	c-5.428,2.104-10.525,4.818-16.188,6.298c-6.723,1.757-9.983-0.718-15.781-3.249c-4.28-1.868-8.589-3.956-13.365-3.822
	c-6.376,0.18-13.057,1.678-19.358,2.627c-13.807,2.08-27.267,6.124-41.207,7.226c-12.811,1.011-25.925,0.394-38.484-2.382
	c-5.526-1.221-10.896-3.126-16.012-5.536c-4.495-2.118-8.765-4.775-13.708-5.72c-11.402-2.178-20.264,5.527-27.751,12.797
	c-1.82,1.767-3.941,3.616-6.317,4.515C8.607,275.559,8.725,278.632,10.975,278.535L10.975,278.535z"/>
<path d="M340.112,399.731l-0.311-0.017c-1.141-0.104-2.164-0.803-3.095-2.136c-0.823-1.173-3.338-4.755-12.584-32.353
	c-2.364-7.059-4.555-13.898-5.976-18.362c-1.834-5.764-2.493-7.864-2.608-8.864h-0.049c-0.001-1-0.002-2.889,2.209-3.688
	c0.961-0.348,2.098-0.312,4.588-0.312h36.85c2.768,0,3.748,0,4.721,0.318c2.308,0.757,2.143,2.904,2.143,3.712v0.416l0.03,0.395
	c-1.804,5.269-17.683,51.682-22.647,58.801C342.176,399.369,340.976,399.731,340.112,399.731z M320.895,339.004
	c3.594,11.58,14.685,46.119,19.21,54.544c4.409-8.14,15.786-40.146,20.748-54.543C360.334,339,359.741,339,359.137,339h-36.754
	C321.851,339,321.342,339,320.895,339.004z"/>
<path d="M340.046,389.487c-0.902,0-1.741-0.454-2.301-1.245l-0.122-0.174c-1.608-2.288-1.63-2.288-6.083-16.523l-0.54-1.656v-0.382
	c0-1.763,1.338-2.713,2.576-2.713c0.445,0,0.79,0.115,0.95,0.17c0.042,0.015,0.115,0.036,0.339,0.036h11.01
	c0.335,0,0.443,0.07,0.501,0.051c0.155-0.051,0.478-0.051,0.9-0.051h1.039l0.764,0.643c0.754,0.758,0.75,1.614,0.749,1.914
	l-0.002,0.39l-0.137,0.382c-1.262,3.63-5.498,15.641-7.051,17.868c-0.554,0.799-1.391,1.262-2.298,1.278
	C340.242,389.485,340.145,389.487,340.046,389.487z M336.942,372c1.643,5.249,2.551,8.129,3.155,9.855
	c1.036-2.576,2.395-6.214,3.696-9.855H336.942z"/>
<g>
	<path d="M367,65h-52V51h52V65z M320,60h42v-4h-42V60z"/>
	<path d="M366.36,49h-50.83l0.006-36.776c0-3.558,1.384-11.862,14.2-12.116l22.87-0.028c5.372,0,9.069,1.104,11.314,3.374
		c2.505,2.532,2.47,5.794,2.448,7.743l-0.004,0.502L366.36,49z M320.53,44h40.83l0.009-32.858c0.021-1.829-0.04-3.199-1.003-4.172
		c-1.223-1.236-3.902-1.89-7.748-1.89l-22.829,0.027c-6.211,0.123-9.253,2.451-9.253,7.117L320.53,44z"/>
	<path d="M359.386,333h-37.003c-2.321,0-4.327,0-5.689-1.388c-1.297-1.318-1.267-3.048-1.225-5.441
		c0.01-0.541,0.021-1.151,0.021-1.84l0.038-256.954l50.831,0.003l-0.026,257.964c0.004,3.032,0.006,4.862-1.384,6.254
		C363.549,333,361.526,333,359.386,333z M320.461,327.951c0.627,0.049,1.55,0.049,1.922,0.049h37.003c0.367,0,1.308,0,1.894-0.059
		c0.056-0.589,0.054-1.603,0.053-2.591l0.026-252.97l-40.831-0.003l-0.038,251.955c0,0.722-0.012,1.36-0.021,1.927
		C320.458,326.85,320.446,327.491,320.461,327.951z"/>
</g>
<rect x="336" y="77" width="8" height="246"/>
<path d="M12.527,185.306c-1.556,0-4.42-0.013-5.748-2.613C5.999,181.166,6,179.298,6,175.907V79.568c0-9.463,0-15.174,3.552-18.437
	C12.96,58,18.675,58,29.05,58h89.131c6.277,0,9.935,0.109,12.109,2.348c2.052,2.113,1.963,5.173,1.815,10.242
	c-0.049,1.685-0.105,3.595-0.105,5.84v93.525c0,2.049,0.05,3.732,0.094,5.217c0.125,4.209,0.194,6.528-1.456,8.229
	c-1.509,1.556-3.802,1.682-6.422,1.682c-0.786,0-1.68-0.015-2.698-0.033c-1.31-0.022-2.83-0.049-4.593-0.049H23.401
	c-3.129,0-5.579,0.11-7.547,0.198C14.564,185.256,13.443,185.319,12.527,185.306z M11.168,180.222
	c0.209,0.039,0.618,0.083,1.382,0.083c0.81,0,1.812-0.045,3.08-0.102c2.018-0.091,4.53-0.204,7.771-0.204h93.525
	c1.796,0,3.344,0.026,4.679,0.049c0.985,0.017,1.851,0.032,2.612,0.032c1.744,0,2.494-0.096,2.806-0.193
	c0.19-0.672,0.132-2.651,0.075-4.569c-0.043-1.445-0.097-3.242-0.097-5.366V76.429c0-2.318,0.057-4.267,0.107-5.986
	c0.094-3.228,0.176-6.016-0.404-6.612C125.896,63,121.253,63,118.181,63H29.05c-8.516,0-14.142,0-16.116,1.813
	C11.09,66.507,11,71.279,11,79.568v96.34C11,177.682,10.999,179.511,11.168,180.222z"/>
<rect x="-2.773" y="119.749" transform="matrix(0.7049 0.7093 -0.7093 0.7049 107.0431 -12.8018)" width="143.36" height="5"/>
<rect x="68.605" y="48.573" transform="matrix(0.7071 0.7071 -0.7071 0.7071 107.2698 -14.4727)" width="4.999" height="147.354"/>
<g>
	<path d="M66.711,348.831c-15.915,0-28.863-12.947-28.863-28.861c0-15.915,12.948-28.863,28.863-28.863
		c15.915,0,28.862,12.948,28.862,28.863C95.573,335.884,82.626,348.831,66.711,348.831z M66.711,296.106
		c-13.158,0-23.863,10.705-23.863,23.863c0,13.157,10.705,23.861,23.863,23.861c13.157,0,23.862-10.704,23.862-23.861
		C90.573,306.812,79.869,296.106,66.711,296.106z"/>
	<path d="M51.591,329.554l-4.912-0.936c1.859-9.758,5.843-16.51,11.841-20.066c7.609-4.512,15.528-2.039,15.863-1.93l-1.524,4.762
		c-0.061-0.019-6.203-1.879-11.843,1.501C56.335,315.69,53.164,321.299,51.591,329.554z"/>
</g>
<g>
	<path d="M155.213,348.831c-15.915,0-28.862-12.947-28.862-28.861c0-15.915,12.947-28.863,28.862-28.863
		c15.915,0,28.863,12.948,28.863,28.863C184.076,335.884,171.128,348.831,155.213,348.831z M155.213,296.106
		c-13.157,0-23.862,10.705-23.862,23.863c0,13.157,10.705,23.861,23.862,23.861c13.158,0,23.863-10.704,23.863-23.861
		C179.076,306.812,168.372,296.106,155.213,296.106z"/>
	<path d="M140.095,329.555l-4.912-0.936c1.859-9.758,5.843-16.51,11.841-20.066c7.608-4.512,15.528-2.038,15.862-1.93l-1.535,4.758
		l0.768-2.379l-0.757,2.383c-0.062-0.02-6.204-1.88-11.842,1.501C144.838,315.691,141.667,321.299,140.095,329.555z"/>
</g>
<g>
	<path d="M243.717,348.831c-15.915,0-28.862-12.947-28.862-28.861c0-15.915,12.947-28.863,28.862-28.863
		s28.862,12.948,28.862,28.863C272.579,335.884,259.632,348.831,243.717,348.831z M243.717,296.106
		c-13.157,0-23.862,10.705-23.862,23.863c0,13.157,10.705,23.861,23.862,23.861s23.862-10.704,23.862-23.861
		C267.579,306.812,256.874,296.106,243.717,296.106z"/>
	<path d="M228.599,331.814l-4.912-0.936c1.859-9.759,5.843-16.511,11.842-20.067c7.61-4.513,15.528-2.037,15.86-1.929l-1.535,4.758
		l0.768-2.379l-0.757,2.383c-0.061-0.018-6.203-1.878-11.841,1.5C233.342,317.95,230.171,323.559,228.599,331.814z"/>
</g>
</svg>
