<?xml version="1.0" encoding="utf-8"?>
<!-- Generator: Adobe Illustrator 16.0.3, SVG Export Plug-In . SVG Version: 6.00 Build 0)  -->
<!DOCTYPE svg PUBLIC "-//W3C//DTD SVG 1.1//EN" "http://www.w3.org/Graphics/SVG/1.1/DTD/svg11.dtd">
<svg version="1.1" id="Layer_1" xmlns="http://www.w3.org/2000/svg" xmlns:xlink="http://www.w3.org/1999/xlink" x="0px" y="0px"
	 width="400px" height="400px" viewBox="0 0 400 400" enable-background="new 0 0 400 400" xml:space="preserve">
<g>
	<g>
		<path d="M156.426,399.798l-1.173-5.368c-1.044-4.805-10.132-46.625-12.026-55.626c-0.346-1.645-1.048-2.597-3.611-2.597
			c-3.075,0-6.496,1.538-6.53,1.553l-22.54,10.735l-1.532-0.771c-49.416-24.707-56.402-58.733-56.467-59.074l-0.138-0.693
			l0.158-0.71c0.167-0.764,1.863-7.971,9.325-22.395c2.823-5.454,2.044-7.526,1.738-8.031c-0.656-1.081-2.562-1.369-3.178-1.385
			l-0.457-0.05L0.149,243.218l44.112-56.393h70.221l60.507-70.829c2.03-2.744,53.197-71.24,109.115-93.704
			C338.03,0.625,390.063,0,395.818,0l4.089,0.026l-0.305,3.757c-3.734,46.201-7.097,62.836-7.558,64.976
			c-9.104,74.252-90.594,140.663-91.416,141.326l-87.365,74.528l-0.505,72.241L156.426,399.798z M139.615,331.207
			c4.593,0,7.614,2.332,8.504,6.567c1.715,8.146,9.342,43.269,11.519,53.287l48.139-36.695l0.503-72.073l89.159-76.058
			c0.861-0.694,80.862-65.892,89.657-138.195l0.03-0.188c0.364-1.668,3.396-16.285,6.924-57.626
			c-11.285,16.434-39.971,57.539-82.742,106.154c0.428,2.289,0.645,4.582,0.645,6.832c0,20.71-16.851,37.56-37.563,37.56
			c-1.169,0-2.373-0.068-3.719-0.212c-64.313,66.845-129.315,120.301-193.23,158.906c7.782,7.804,18.489,16.044,33.165,23.464
			l20.361-9.697C131.01,333.211,135.337,331.207,139.615,331.207z M57.526,288.001c0.505,2.032,3.858,13.827,16.393,27.749
			c63.612-38.282,128.353-91.412,192.45-157.932c-16.089-3.697-27.54-17.906-27.54-34.607c0-19.606,15.953-35.558,35.562-35.558
			c14.835,0,28.024,9.294,33.204,22.991l0.506-1.013l0.407,2.359c44.227-50.399,73.148-92.515,83.014-106.919
			c-14.443,0.422-59.271,3.264-105.554,21.86c-55.31,22.22-106.492,91.4-107.002,92.096l-0.116,0.147l-62.063,72.649H46.697
			L9.069,239.929l51.723,10.518c1.136,0.063,5.131,0.518,7.113,3.783c1.83,3.022,1.3,7.368-1.573,12.921
			C59.831,279.717,57.909,286.483,57.526,288.001z M271.737,153.637c1.066,0.093,1.887,0.134,2.653,0.134
			c16.853,0,30.563-13.708,30.563-30.559c0-0.653-0.025-1.32-0.077-2.006l-0.432-3.315c-0.058-0.443-0.147-0.881-0.267-1.304
			l-0.095-0.421c-0.024-0.12-0.047-0.241-0.08-0.358l-0.085-0.275l1.507-0.548l-1.537,0.445l-0.04-0.132
			c-3.585-13.332-15.698-22.643-29.457-22.643c-16.852,0-30.562,13.708-30.562,30.558c0,14.994,10.744,27.651,25.553,30.108
			L271.737,153.637z"/>
		<path d="M19.92,391.271c-0.002,0-0.002,0-0.005,0c-6.25-0.001-10.958-1.642-13.993-4.876c-2.927-3.118-4.226-7.629-3.86-13.406
			c1.307-20.641,11.209-38.89,19.286-50.565c4.729-6.835,9.234-12.039,12.18-15.202c5.836-6.264,6.77-6.264,7.594-6.264h1.386
			l1.486,2.358l-0.619,1.304c-0.065,0.133-0.264,0.514-0.578,1.11c-15.083,28.65-23.246,50.783-21.866,59.268
			c1.684,6.46,5.745,6.716,6.205,6.724l0.208,0.008c0.439,0.036,0.94,0.054,1.487,0.054c10.939,0,37.337-6.75,53.11-10.782
			c9.346-2.39,11.635-2.948,12.663-2.948c1.488,0,2.38,1.058,2.579,2.04c0.426,2.11-1.542,2.938-2.488,3.337
			c-1.149,0.484-3.665,1.767-6.85,3.391C72.279,374.757,39.891,391.271,19.92,391.271z M31.321,317.352
			c-9.857,12.279-22.807,32.877-24.269,55.954c-0.275,4.344,0.571,7.597,2.515,9.668c2.053,2.188,5.535,3.297,10.349,3.298
			c0.001,0,0.002,0,0.004,0c14.648,0,37.875-10.203,54.038-18.085c-16.735,4.2-38.295,9.204-46.952,8.532
			c-3.209-0.084-8.859-2.386-10.946-10.584l-0.041-0.191C14.264,355.8,22.969,334.631,31.321,317.352z"/>
	</g>
</g>
</svg>
