<?xml version="1.0" encoding="utf-8"?>
<!-- Generator: Adobe Illustrator 16.0.3, SVG Export Plug-In . SVG Version: 6.00 Build 0)  -->
<!DOCTYPE svg PUBLIC "-//W3C//DTD SVG 1.1//EN" "http://www.w3.org/Graphics/SVG/1.1/DTD/svg11.dtd">
<svg version="1.1" xmlns="http://www.w3.org/2000/svg" xmlns:xlink="http://www.w3.org/1999/xlink" x="0px" y="0px" width="400px"
	 height="400px" viewBox="0 0 400 400" enable-background="new 0 0 400 400" xml:space="preserve">
<g id="Layer_1">
	<path d="M304.182,304.403H100.814c-9.976,0-14.529,0-17.467-1.907c-3.479-2.259-3.479-6.162-3.479-12.629V161.301
		c0-8.55,0-13.711,4.118-16.664c3.73-2.675,10.001-2.794,22.702-2.794h194.559c8.896,0,12.956,0,15.66,2.266
		c2.902,2.432,2.902,6.431,2.902,13.692v131.227c0,7.128,0.001,10.706-2.39,13.051C315.05,304.403,311.417,304.403,304.182,304.403z
		 M106.688,146.844c-10.664,0-17.324,0.09-19.789,1.857c-1.949,1.398-2.031,4.873-2.031,12.601v128.566
		c0,5.17,0.051,7.688,1.202,8.435c1.696,1.102,6.607,1.102,14.744,1.102h203.368c5.123,0,8.825,0,9.737-0.895
		c0.891-0.874,0.891-4.484,0.891-9.48V157.801c0-5.375,0-8.926-1.113-9.858c-1.311-1.099-5.742-1.099-12.449-1.099H106.688z"/>
	<path d="M106.445,168.918h-5.305c-3.972,0-5.121-1.139-5.121-5.077v-4.301c0-3.921,1.137-5.055,5.07-5.055h5.377
		c1.634,0,2.923,0,3.968,1.027c1.065,1.045,1.064,2.331,1.064,3.958v4.35c0,1.646,0,2.942-1.024,3.999
		C109.409,168.918,108.036,168.918,106.445,168.918z M101.019,163.918c0.041,0,0.082,0,0.121,0h5.305c0.018,0,0.036,0,0.055,0
		c0-0.031,0-0.063,0-0.094v-4.284c0-0.018,0-0.037,0-0.055c-0.01,0-0.02,0-0.03,0h-5.375c-0.025,0-0.051,0-0.076,0
		c0,0.019,0,0.037,0,0.055v4.301C101.019,163.866,101.019,163.891,101.019,163.918z"/>
	<path d="M118.872,168.918h-5.306c-3.052,0-5.579-0.382-5.579-5.077v-4.301c0-4.674,2.504-5.055,5.53-5.055h5.377
		c1.605,0,2.763,0,3.735,1.007c0.935,0.969,0.893,2.152,0.859,3.102c-0.01,0.262-0.021,0.574-0.021,0.945v4.28
		c0,0.358,0.01,0.663,0.019,0.922c0.033,1.022,0.071,2.18-0.875,3.157C121.625,168.918,120.41,168.918,118.872,168.918z
		 M112.987,163.916c0.196,0.002,0.399,0.002,0.579,0.002h4.902c0-0.032,0-0.065,0-0.098v-4.28c0-0.019,0-0.037,0-0.055h-4.945
		c-0.172,0-0.357,0-0.536,0.001c0,0.017,0,0.035,0,0.053v4.301C112.987,163.867,112.987,163.892,112.987,163.916z"/>
	<path d="M130.288,168.918h-5.306c-1.605,0-2.874,0-3.917-1.007c-1.075-1.039-1.074-2.355-1.073-3.88l0-4.79
		c-0.002-1.449-0.005-2.701,1.014-3.722c1.031-1.033,2.309-1.033,3.927-1.033h5.376c1.634,0,2.922,0,3.986,0.982
		c1.177,1.086,1.177,2.537,1.177,4.072v4.28C135.474,167.727,134.262,168.918,130.288,168.918z M124.993,163.918h5.295
		c0.057,0,0.12,0,0.186,0c0-0.037,0-0.07,0-0.098v-4.28c0-0.017,0-0.035,0-0.055c-0.054,0-0.107,0-0.161,0h-5.32V163.918z"/>
	<path d="M166.575,168.918h-5.306c-3.526,0-5.316-0.785-5.316-5.077v-4.301c0-4.298,1.699-5.055,5.268-5.055h5.376
		c1.596,0,2.854,0,3.867,1.02c0.99,0.998,0.981,2.209,0.972,3.492l-0.002,4.822l0.002,0.499c0.008,1.314,0.015,2.555-0.988,3.565
		C169.418,168.918,168.1,168.918,166.575,168.918z M160.952,163.917c0.109,0,0.217,0,0.316,0h5.165l0-4.378l0-0.055h-5.208
		c-0.09,0-0.182,0-0.273,0c0,0.018,0,0.036,0,0.055v4.301C160.952,163.867,160.952,163.893,160.952,163.917z"/>
	<path d="M177.983,168.918h-5.306c-1.566,0-2.803,0-3.804-1.018c-0.969-0.985-0.95-2.173-0.931-3.322
		c0.004-0.217,0.008-0.461,0.008-0.737v-4.301c0-0.305-0.006-0.57-0.011-0.802c-0.022-1.062-0.048-2.266,0.909-3.243
		c0.988-1.01,2.221-1.01,3.781-1.01h5.377c1.603,0,2.866,0,3.954,0.844c1.471,1.142,1.471,2.988,1.471,4.21v4.28
		C183.432,168.534,180.964,168.918,177.983,168.918z M172.951,163.918h5.033c0.13,0,0.287,0,0.448-0.001c0-0.031,0-0.064,0-0.097
		v-4.28c0-0.019,0-0.036,0-0.054c-0.14,0-0.284,0-0.422,0h-5.059c0,0.018,0,0.036,0,0.055v4.301
		C172.951,163.867,172.951,163.893,172.951,163.918z"/>
	<path d="M190.42,168.918h-5.306c-3.514,0-5.186-0.76-5.186-5.077v-4.301c0-3.921,1.152-5.055,5.136-5.055h5.377
		c1.627,0,2.911,0,3.946,1.037c1.025,1.026,1.023,2.299,1.021,3.772v4.713c0.001,1.522,0.002,2.836-1.057,3.877
		C193.302,168.918,191.967,168.918,190.42,168.918z M184.929,163.918c0.064,0,0.126,0,0.186,0h5.295v-4.433h-5.339
		c-0.047,0-0.094,0-0.142,0c0,0.019,0,0.038,0,0.055v4.301C184.929,163.864,184.929,163.89,184.929,163.918z"/>
	<path d="M202.841,168.918h-5.306c-2.382,0-5.644,0-5.644-5.077v-4.301c0-5.055,3.103-5.055,5.595-5.055h5.378
		c1.595,0,2.745,0,3.708,1.008c0.924,0.967,0.871,2.113,0.829,3.034c-0.013,0.274-0.028,0.608-0.028,1.013v4.28
		c0,0.393,0.014,0.72,0.025,0.992c0.039,0.941,0.089,2.112-0.846,3.086C205.575,168.918,204.368,168.918,202.841,168.918z
		 M196.891,163.916c0.217,0.002,0.445,0.002,0.644,0.002h4.838c0-0.032,0-0.065,0-0.098v-4.28c0-0.019,0-0.037,0-0.055h-4.881
		c-0.193,0-0.402,0-0.601,0.002c0,0.017,0,0.035,0,0.053v4.301C196.891,163.867,196.891,163.891,196.891,163.916z"/>
	<path d="M214.263,168.918h-5.305c-1.652,0-2.957,0-4.016-1.073c-1.04-1.054-1.04-2.353-1.04-3.998v-4.433
		c-0.001-1.609-0.001-2.879,1.072-3.92c1.041-1.009,2.317-1.009,3.934-1.009h5.378c1.645,0,2.94,0,3.997,1.024
		c1.1,1.066,1.1,2.439,1.1,4.03v4.28C219.383,167.727,218.187,168.918,214.263,168.918z M208.902,163.918c0.019,0,0.037,0,0.056,0
		h5.305c0.038,0,0.078,0,0.12,0c0-0.035,0-0.067,0-0.098v-4.28c0-0.018,0-0.036,0-0.055c-0.031,0-0.063,0-0.094,0h-5.375
		c-0.004,0-0.008,0-0.012,0v4.356C208.902,163.867,208.902,163.892,208.902,163.918z"/>
	<path d="M226.697,168.918h-5.306c-3.017,0-5.514-0.382-5.514-5.077v-4.301c0-4.674,2.475-5.055,5.464-5.055h5.378
		c1.556,0,2.782,0,3.764,1.008c0.947,0.973,0.917,2.147,0.89,3.184c-0.007,0.245-0.015,0.531-0.015,0.863v4.28
		c0,0.318,0.007,0.594,0.013,0.834c0.024,1.06,0.053,2.261-0.906,3.243C229.469,168.918,228.245,168.918,226.697,168.918z
		 M220.878,163.917c0.176,0.001,0.354,0.001,0.514,0.001h4.967c0-0.032,0-0.065,0-0.098v-4.28c0-0.019,0-0.037,0-0.055h-5.011
		c-0.151,0-0.313,0-0.47,0.001c0,0.018,0,0.036,0,0.054v4.301C220.878,163.867,220.878,163.892,220.878,163.917z"/>
	<path d="M238.304,168.918h-5.307c-3.973,0-5.121-1.139-5.121-5.077v-4.301c0-3.921,1.138-5.055,5.073-5.055h5.378
		c1.634,0,2.923,0,3.968,1.028c1.063,1.045,1.063,2.331,1.063,3.958v4.349c0,1.646,0,2.943-1.024,3.999
		C241.268,168.918,239.895,168.918,238.304,168.918z M232.876,163.918c0.041,0,0.082,0,0.121,0h5.307c0.018,0,0.036,0,0.055,0
		c0-0.031,0-0.062,0-0.092v-4.286c0-0.018,0-0.037,0-0.055c-0.01,0-0.019,0-0.028,0h-5.375c-0.026,0-0.053,0-0.079,0
		c0,0.019,0,0.037,0,0.055v4.301C232.876,163.866,232.876,163.891,232.876,163.918z"/>
	<path d="M250.548,168.918h-5.305c-3.05,0-5.383-0.374-5.383-5.077v-4.301c0-4.273,1.796-5.055,5.334-5.055h5.377
		c1.581,0,2.827,0,3.829,1.014c0.975,0.988,0.96,2.204,0.945,3.379l-0.005,4.941l0.004,0.626c0.013,1.202,0.026,2.446-0.961,3.444
		C253.366,168.918,252.06,168.918,250.548,168.918z M244.86,163.917c0.132,0,0.263,0,0.383,0h5.099l-0.001-4.433H245.2
		c-0.112,0-0.227,0-0.34,0c0,0.018,0,0.036,0,0.054v4.301C244.86,163.867,244.86,163.893,244.86,163.917z"/>
	<path d="M262.277,168.918h-5.305c-3.973,0-5.121-1.139-5.121-5.077v-4.301c0-3.921,1.138-5.055,5.072-5.055h5.376
		c1.635,0,2.924,0,3.97,1.029c1.063,1.046,1.063,2.332,1.063,3.96v4.346c0,1.646,0,2.943-1.024,3.999
		C265.241,168.918,263.868,168.918,262.277,168.918z M256.852,163.918c0.041,0,0.082,0,0.121,0h5.305c0.018,0,0.036,0,0.055,0
		c0-0.031,0-0.062,0-0.092v-4.286c0-0.018,0-0.037,0-0.055c-0.01,0-0.02,0-0.029,0h-5.373c-0.026,0-0.052,0-0.078,0
		c0,0.019,0,0.037,0,0.055v4.301C256.852,163.866,256.852,163.891,256.852,163.918z"/>
	<path d="M274.265,168.918h-5.306c-3.972,0-5.12-1.139-5.12-5.077v-4.301c0-3.921,1.138-5.055,5.071-5.055h5.377
		c1.635,0,2.924,0,3.97,1.029c1.063,1.046,1.063,2.332,1.063,3.96v4.346c0,1.646,0,2.943-1.024,3.999
		C277.229,168.918,275.855,168.918,274.265,168.918z M268.839,163.918c0.041,0,0.081,0,0.12,0h5.306c0.018,0,0.036,0,0.055,0
		c0-0.031,0-0.062,0-0.092v-4.286c0-0.018,0-0.037,0-0.055c-0.01,0-0.02,0-0.029,0h-5.374c-0.025,0-0.052,0-0.077,0
		c0,0.019,0,0.037,0,0.055v4.301C268.839,163.866,268.839,163.891,268.839,163.918z"/>
	<path d="M286.252,168.918h-5.307c-3.971,0-5.119-1.139-5.119-5.077v-4.301c0-3.921,1.138-5.055,5.07-5.055h5.378
		c1.635,0,2.924,0,3.97,1.029c1.063,1.046,1.063,2.332,1.063,3.96v4.346c0,1.646,0,2.943-1.024,3.999
		C289.216,168.918,287.843,168.918,286.252,168.918z M280.826,163.918c0.041,0,0.08,0,0.119,0h5.307c0.018,0,0.036,0,0.055,0
		c0-0.031,0-0.062,0-0.092v-4.286c0-0.018,0-0.037,0-0.055c-0.01,0-0.02,0-0.029,0h-5.375c-0.025,0-0.051,0-0.076,0
		c0,0.019,0,0.037,0,0.055v4.301C280.826,163.866,280.826,163.891,280.826,163.918z"/>
	<path d="M298.237,168.918h-5.305c-3.971,0-5.119-1.139-5.119-5.077v-4.301c0-3.921,1.138-5.055,5.07-5.055h5.377
		c1.634,0,2.923,0,3.968,1.026c1.065,1.045,1.065,2.331,1.065,3.957v4.352c0,1.647,0,2.943-1.025,4
		C301.202,168.918,299.828,168.918,298.237,168.918z M292.813,163.918c0.041,0,0.08,0,0.119,0h5.305c0.019,0,0.037,0,0.057,0
		c0-0.031,0-0.062,0-0.092v-4.286c0-0.018,0-0.037,0-0.055c-0.01,0-0.021,0-0.03,0h-5.374c-0.025,0-0.051,0-0.076,0
		c0,0.019,0,0.037,0,0.055v4.301C292.813,163.866,292.813,163.891,292.813,163.918z"/>
	<path d="M154.134,168.918h-5.306c-1.594,0-2.853,0-3.875-1.029c-1-1.005-0.993-2.242-0.985-3.551l0.002-4.798l-0.003-0.584
		c-0.011-1.264-0.022-2.458,0.963-3.453c1.009-1.018,2.262-1.018,3.849-1.018h5.378c1.616,0,2.891,0,3.967,0.908
		c1.327,1.119,1.327,2.797,1.327,4.146v4.28C159.451,168.129,157.661,168.918,154.134,168.918z M148.97,163.918h5.165
		c0.094,0,0.203,0,0.317,0c0-0.032,0-0.064,0-0.098v-4.28c0-0.019,0-0.037,0-0.055c-0.098,0-0.196,0-0.292,0h-5.19l0,4.356
		L148.97,163.918z"/>
	<path d="M142.726,168.918h-5.306c-2.98,0-5.447-0.382-5.447-5.077v-4.301c0-4.683,2.34-5.055,5.398-5.055h5.377
		c1.569,0,2.806,0,3.797,1.01c0.961,0.979,0.939,2.145,0.917,3.272c-0.004,0.225-0.009,0.481-0.009,0.772v4.28
		c0,0.275,0.004,0.52,0.008,0.737c0.019,1.154,0.039,2.348-0.934,3.337C145.52,168.918,144.287,168.918,142.726,168.918z
		 M136.972,163.917c0.154,0.001,0.308,0.001,0.447,0.001h5.033c0-0.032,0-0.065,0-0.098v-4.28c0-0.019,0-0.037,0-0.055h-5.076
		c-0.13,0-0.268,0-0.404,0c0,0.018,0,0.036,0,0.054v4.301C136.972,163.867,136.972,163.893,136.972,163.917z"/>
	<path d="M106.445,180.446h-5.305c-3.972,0-5.121-1.139-5.121-5.076v-4.301c0-3.921,1.136-5.055,5.064-5.055h5.383
		c1.636,0,2.924,0,3.97,1.028c1.063,1.045,1.063,2.33,1.063,3.957v4.351c0,1.645,0,2.941-1.025,3.998
		C109.409,180.446,108.035,180.446,106.445,180.446z M101.019,175.446c0.041,0,0.082,0,0.121,0h5.305c0.018,0,0.036,0,0.055,0
		c0-0.031,0-0.062,0-0.092v-4.285c0-0.018,0-0.037,0-0.055c-0.009,0-0.018,0-0.027,0h-5.377c-0.025,0-0.051,0-0.076,0
		c0,0.019,0,0.037,0,0.055v4.301C101.019,175.394,101.019,175.419,101.019,175.446z"/>
	<path d="M119.068,180.446h-5.306c-3.052,0-5.578-0.382-5.578-5.076v-4.301c0-4.674,2.501-5.055,5.524-5.055h5.382
		c1.607,0,2.764,0,3.735,1.007c0.935,0.969,0.893,2.151,0.859,3.102c-0.01,0.263-0.021,0.575-0.021,0.945v4.28
		c0,0.357,0.01,0.662,0.019,0.92c0.033,1.022,0.07,2.18-0.875,3.157C121.821,180.446,120.606,180.446,119.068,180.446z
		 M113.185,175.444c0.196,0.002,0.398,0.002,0.578,0.002h4.902c0-0.032,0-0.064,0-0.097v-4.28c0-0.019,0-0.037,0-0.055h-4.944
		c-0.173,0-0.357,0-0.536,0.001c0,0.017,0,0.035,0,0.053v4.301C113.185,175.395,113.185,175.42,113.185,175.444z"/>
	<path d="M130.681,180.446h-5.306c-1.606,0-2.874,0-3.917-1.008c-1.074-1.039-1.073-2.356-1.072-3.882l0-4.787
		c-0.002-1.449-0.005-2.701,1.014-3.722c1.031-1.033,2.307-1.033,3.921-1.033h5.383c1.636,0,2.924,0,3.988,0.983
		c1.176,1.086,1.176,2.537,1.176,4.072v4.28C135.867,179.255,134.655,180.446,130.681,180.446z M125.386,175.446h5.295
		c0.057,0,0.12,0,0.186,0c0-0.037,0-0.069,0-0.097v-4.28c0-0.017,0-0.035,0-0.055c-0.053,0-0.105,0-0.158,0h-5.324V175.446z"/>
	<path d="M167.557,180.446h-5.305c-3.526,0-5.317-0.785-5.317-5.076v-4.301c0-4.298,1.696-5.055,5.261-5.055h5.383
		c1.598,0,2.855,0,3.868,1.02c0.991,0.998,0.982,2.21,0.972,3.493l-0.002,4.822l0.002,0.496c0.008,1.314,0.015,2.556-0.988,3.565
		C170.401,180.446,169.083,180.446,167.557,180.446z M161.935,175.445c0.109,0,0.217,0,0.317,0h5.165l0-4.377l0-0.055h-5.209
		c-0.088,0-0.18,0-0.272,0c0,0.018,0,0.036,0,0.055v4.301C161.935,175.396,161.935,175.421,161.935,175.445z"/>
	<path d="M179.163,180.446h-5.306c-1.566,0-2.803,0-3.804-1.018c-0.969-0.985-0.949-2.173-0.931-3.322
		c0.004-0.217,0.008-0.461,0.008-0.736v-4.301c0-0.305-0.006-0.571-0.011-0.804c-0.022-1.062-0.048-2.265,0.908-3.242
		c0.988-1.009,2.218-1.009,3.775-1.009h5.383c1.605,0,2.868,0,3.956,0.845c1.469,1.142,1.469,2.988,1.469,4.209v4.28
		C184.61,180.063,182.143,180.446,179.163,180.446z M174.13,175.446h5.033c0.13,0,0.287,0,0.448-0.001c0-0.031,0-0.063,0-0.096
		v-4.28c0-0.019,0-0.037,0-0.054c-0.139,0-0.282,0-0.419,0h-5.061c0,0.018,0,0.036,0,0.055v4.301
		C174.13,175.396,174.13,175.42,174.13,175.446z"/>
	<path d="M191.795,180.446h-5.305c-3.514,0-5.186-0.76-5.186-5.076v-4.301c0-3.921,1.15-5.055,5.129-5.055h5.384
		c1.629,0,2.911,0,3.946,1.036c1.025,1.026,1.023,2.298,1.021,3.771v4.715c0.001,1.521,0.002,2.835-1.058,3.876
		C194.677,180.446,193.341,180.446,191.795,180.446z M186.305,175.446c0.064,0,0.126,0,0.186,0h5.294v-4.432h-5.339
		c-0.046,0-0.094,0-0.141,0c0,0.019,0,0.038,0,0.055v4.301C186.305,175.392,186.305,175.417,186.305,175.446z"/>
	<path d="M204.413,180.446h-5.306c-2.382,0-5.644,0-5.644-5.076v-4.301c0-5.055,3.099-5.055,5.588-5.055h5.384
		c1.597,0,2.745,0,3.708,1.008c0.924,0.967,0.871,2.113,0.829,3.034c-0.013,0.274-0.028,0.608-0.028,1.013v4.28
		c0,0.393,0.014,0.719,0.025,0.992c0.039,0.94,0.089,2.112-0.846,3.085C207.147,180.446,205.94,180.446,204.413,180.446z
		 M198.464,175.443c0.217,0.002,0.444,0.002,0.644,0.002h4.838c0-0.032,0-0.064,0-0.097v-4.28c0-0.019,0-0.037,0-0.055h-4.881
		c-0.194,0-0.402,0-0.6,0.002c0,0.017,0,0.035,0,0.053v4.301C198.464,175.395,198.464,175.419,198.464,175.443z"/>
	<path d="M216.032,180.446h-5.306c-1.652,0-2.957,0-4.015-1.073c-1.04-1.054-1.04-2.353-1.04-3.998v-4.435
		c-0.001-1.606-0.001-2.875,1.07-3.916c1.041-1.01,2.315-1.01,3.93-1.01h5.383c1.646,0,2.941,0,3.998,1.024
		c1.1,1.066,1.1,2.44,1.1,4.03v4.28C221.152,179.255,219.956,180.446,216.032,180.446z M210.672,175.446c0.019,0,0.037,0,0.055,0
		h5.306c0.038,0,0.078,0,0.12,0c0-0.034,0-0.066,0-0.097v-4.28c0-0.018,0-0.036,0-0.055c-0.031,0-0.062,0-0.092,0h-5.377
		c-0.004,0-0.008,0-0.012,0v4.355C210.672,175.395,210.672,175.42,210.672,175.446z"/>
	<path d="M228.661,180.446h-5.305c-3.017,0-5.514-0.382-5.514-5.076v-4.301c0-4.674,2.473-5.055,5.459-5.055h5.383
		c1.558,0,2.782,0,3.764,1.008c0.947,0.973,0.916,2.146,0.889,3.181c-0.007,0.246-0.015,0.533-0.015,0.866v4.28
		c0,0.319,0.007,0.597,0.013,0.837c0.025,1.058,0.054,2.257-0.904,3.239C231.434,180.446,230.21,180.446,228.661,180.446z
		 M222.843,175.444c0.176,0.001,0.354,0.001,0.514,0.001h4.966c0-0.032,0-0.064,0-0.097v-4.28c0-0.019,0-0.037,0-0.055h-5.009
		c-0.152,0-0.313,0-0.471,0.001c0,0.018,0,0.036,0,0.054v4.301C222.843,175.395,222.843,175.42,222.843,175.444z"/>
	<path d="M240.465,180.446h-5.307c-3.971,0-5.119-1.139-5.119-5.076v-4.301c0-3.921,1.136-5.055,5.065-5.055h5.384
		c1.636,0,2.923,0,3.969,1.028c1.063,1.045,1.063,2.329,1.063,3.955v4.352c0,1.646,0,2.942-1.025,3.999
		C243.429,180.446,242.055,180.446,240.465,180.446z M235.039,175.446c0.041,0,0.08,0,0.119,0h5.307c0.018,0,0.036,0,0.055,0
		c0-0.03,0-0.061,0-0.091v-4.286c0-0.018,0-0.037,0-0.055c-0.009,0-0.017,0-0.025,0h-5.378c-0.025,0-0.052,0-0.077,0
		c0,0.019,0,0.037,0,0.055v4.301C235.039,175.394,235.039,175.419,235.039,175.446z"/>
	<path d="M252.906,180.446H247.6c-3.049,0-5.381-0.374-5.381-5.076v-4.301c0-4.273,1.794-5.055,5.327-5.055h5.383
		c1.583,0,2.829,0,3.83,1.014c0.976,0.987,0.96,2.202,0.945,3.376l-0.005,4.944l0.004,0.625c0.013,1.202,0.026,2.445-0.961,3.443
		C255.725,180.446,254.418,180.446,252.906,180.446z M247.219,175.445c0.132,0,0.262,0,0.381,0h5.101l-0.001-4.432h-5.142
		c-0.109,0-0.225,0-0.339,0c0,0.018,0,0.036,0,0.054v4.301C247.219,175.396,247.219,175.421,247.219,175.445z"/>
	<path d="M264.832,180.446h-5.305c-3.973,0-5.121-1.139-5.121-5.076v-4.301c0-3.921,1.136-5.055,5.064-5.055h5.383
		c1.638,0,2.926,0,3.972,1.029c1.063,1.046,1.063,2.332,1.063,3.959v4.346c0,1.646,0,2.942-1.025,3.999
		C267.796,180.446,266.423,180.446,264.832,180.446z M259.406,175.446c0.041,0,0.082,0,0.121,0h5.305c0.018,0,0.036,0,0.056,0
		c0-0.03,0-0.061,0-0.091v-4.286c0-0.018,0-0.037,0-0.055c-0.01,0-0.019,0-0.028,0h-5.377c-0.025,0-0.051,0-0.076,0
		c0,0.019,0,0.037,0,0.055v4.301C259.406,175.394,259.406,175.419,259.406,175.446z"/>
	<path d="M284.071,180.446h-10.059c-4.656,0-7.467,0-7.467-5.076v-4.301c0-5.055,2.771-5.055,7.363-5.055h10.205
		c2.896,0,4.213,0,5.353,0.592c1.948,1.01,1.947,2.966,1.947,4.394v4.35c0,1.526,0,3.416-1.912,4.455
		C288.319,180.446,286.899,180.446,284.071,180.446z M271.546,175.419c0.653,0.027,1.569,0.027,2.467,0.027h10.059
		c0.781,0,1.681,0,2.343-0.026c0-0.021,0-0.042,0-0.063v-4.288c0-0.012,0-0.023,0-0.035c-0.611-0.02-1.436-0.02-2.289-0.02h-10.193
		c-0.899,0-1.761,0-2.386,0.022c0,0.011,0,0.022,0,0.033v4.301C271.546,175.385,271.546,175.401,271.546,175.419z"/>
	<path d="M298.369,180.315h-5.306c-3.972,0-5.12-1.139-5.12-5.078v-4.3c0-3.921,1.137-5.055,5.068-5.055h5.381
		c1.635,0,2.923,0,3.968,1.027c1.064,1.045,1.064,2.33,1.064,3.956v4.352c0,1.646,0,2.943-1.025,4
		C301.333,180.315,299.96,180.315,298.369,180.315z M292.943,175.315c0.041,0,0.081,0,0.12,0h5.306c0.018,0,0.036,0,0.056,0
		c0-0.031,0-0.062,0-0.092v-4.286c0-0.018,0-0.037,0-0.055c-0.01,0-0.019,0-0.027,0h-5.377c-0.025,0-0.052,0-0.077,0
		c0,0.019,0,0.037,0,0.055v4.3C292.943,175.262,292.943,175.288,292.943,175.315z"/>
	<path d="M154.92,180.446h-5.306c-1.594,0-2.853,0-3.875-1.028c-1-1.005-0.992-2.242-0.984-3.55l0.002-4.798l-0.003-0.584
		c-0.011-1.265-0.022-2.459,0.963-3.453c1.009-1.018,2.259-1.018,3.843-1.018h5.384c1.618,0,2.892,0,3.969,0.909
		c1.326,1.119,1.326,2.797,1.326,4.146v4.28C160.237,179.658,158.447,180.446,154.92,180.446z M149.756,175.446h5.165
		c0.094,0,0.203,0,0.317,0c0-0.031,0-0.063,0-0.096v-4.28c0-0.019,0-0.037,0-0.055c-0.097,0-0.194,0-0.289,0h-5.193l0,4.355
		L149.756,175.446z"/>
	<path d="M143.315,180.446h-5.306c-2.981,0-5.448-0.382-5.448-5.076v-4.301c0-4.683,2.337-5.055,5.393-5.055h5.383
		c1.57,0,2.806,0,3.797,1.01c0.96,0.979,0.938,2.145,0.917,3.273c-0.004,0.225-0.009,0.48-0.009,0.771v4.28
		c0,0.275,0.004,0.52,0.008,0.737c0.019,1.154,0.039,2.347-0.934,3.335C146.109,180.446,144.876,180.446,143.315,180.446z
		 M137.562,175.445c0.154,0.001,0.309,0.001,0.448,0.001h5.032c0-0.032,0-0.064,0-0.097v-4.28c0-0.019,0-0.037,0-0.055h-5.076
		c-0.13,0-0.268,0-0.404,0c0,0.018,0,0.036,0,0.054v4.301C137.562,175.396,137.562,175.42,137.562,175.445z"/>
	<path d="M112.388,193.11h-8.611c-3.855,0-7.496,0-7.496-5.078v-4.3c0-5.054,3.433-5.054,7.407-5.054h8.736
		c2.76,0,4.016,0,5.069,1.115c0.947,1.003,0.879,2.186,0.829,3.049c-0.015,0.247-0.032,0.541-0.032,0.89v4.281
		c0,0.338,0.016,0.625,0.029,0.87c0.046,0.88,0.109,2.086-0.85,3.096C116.396,193.11,115.056,193.11,112.388,193.11z
		 M101.281,188.065c0.629,0.045,1.604,0.045,2.496,0.045h8.611c0.28,0,0.596,0,0.902-0.002c0-0.031,0-0.063,0-0.095v-4.281
		c0-0.018,0-0.035,0-0.053c-0.275-0.001-0.567-0.001-0.856-0.001h-8.727c-0.904,0-1.819,0-2.426,0.037c0,0.006,0,0.011,0,0.017v4.3
		C101.281,188.043,101.281,188.055,101.281,188.065z"/>
	<path d="M137.708,193.023h-5.306c-3.006,0-5.495-0.382-5.495-5.076v-4.301c0-4.675,2.464-5.056,5.44-5.056h5.383
		c1.561,0,2.79,0,3.774,1.008c0.951,0.974,0.922,2.16,0.896,3.207c-0.006,0.241-0.013,0.519-0.013,0.841v4.28
		c0,0.307,0.006,0.576,0.011,0.811c0.023,1.07,0.049,2.282-0.913,3.266C140.486,193.023,139.26,193.023,137.708,193.023z
		 M131.907,188.021c0.169,0.001,0.341,0.001,0.495,0.001h4.985c0-0.032,0-0.065,0-0.098v-4.28c0-0.019,0-0.037,0-0.056h-5.029
		c-0.146,0-0.3,0-0.452,0.001c0,0.018,0,0.036,0,0.055v4.301C131.907,187.972,131.907,187.998,131.907,188.021z"/>
	<path d="M125.568,193.197h-5.306c-3.006,0-5.495-0.382-5.495-5.077v-4.301c0-4.674,2.463-5.054,5.439-5.054h5.383
		c1.561,0,2.79,0,3.773,1.008c0.951,0.974,0.922,2.159,0.896,3.205c-0.006,0.241-0.013,0.519-0.013,0.841v4.28
		c0,0.307,0.006,0.576,0.011,0.81c0.023,1.07,0.049,2.283-0.913,3.266C128.346,193.197,127.12,193.197,125.568,193.197z
		 M119.768,188.196c0.169,0.001,0.341,0.001,0.495,0.001h4.985c0-0.032,0-0.065,0-0.098v-4.28c0-0.018,0-0.036,0-0.054h-5.029
		c-0.146,0-0.3,0-0.451,0.001c0,0.017,0,0.035,0,0.053v4.301C119.768,188.146,119.768,188.171,119.768,188.196z"/>
	<path d="M173.588,193.023h-5.306c-3.526,0-5.316-0.785-5.316-5.076v-4.301c0-4.299,1.696-5.056,5.261-5.056h5.383
		c1.597,0,2.854,0,3.867,1.02c0.99,0.998,0.981,2.209,0.972,3.493l-0.002,4.823l0.002,0.498c0.008,1.314,0.015,2.555-0.988,3.564
		C176.431,193.023,175.113,193.023,173.588,193.023z M167.966,188.022c0.109,0,0.217,0,0.316,0h5.164l0-4.377l0-0.056h-5.208
		c-0.088,0-0.18,0-0.272,0c0,0.019,0,0.037,0,0.056v4.301C167.966,187.973,167.966,187.998,167.966,188.022z"/>
	<path d="M185.388,193.023h-5.306c-3.954,0-5.098-1.139-5.098-5.076v-4.301c0-1.65,0-2.949,1.046-4
		c1.051-1.056,2.351-1.056,3.997-1.056h5.383c1.652,0,2.953,0,4.004,1.052c1.049,1.051,1.049,2.352,1.049,3.999v4.284
		C190.464,191.879,189.326,193.023,185.388,193.023z M179.984,188.023c0.033,0,0.066,0,0.098,0h5.306c0.024,0,0.05,0,0.076,0
		c0-0.033,0-0.066,0-0.098v-4.28c0-0.019,0-0.037,0-0.056c-0.016,0-0.032,0-0.048,0h-5.377c-0.018,0-0.037,0-0.055,0
		c0,0.017,0,0.034,0,0.051v4.306C179.984,187.971,179.984,187.997,179.984,188.023z"/>
	<path d="M197.492,193.023h-5.306c-3.514,0-5.186-0.76-5.186-5.076v-4.301c0-3.922,1.151-5.056,5.131-5.056h5.383
		c1.629,0,2.911,0,3.946,1.036c1.025,1.026,1.023,2.299,1.021,3.772v4.716c0.001,1.521,0.002,2.834-1.058,3.876
		C200.373,193.023,199.038,193.023,197.492,193.023z M192,188.023c0.064,0,0.126,0,0.186,0h5.295v-4.433h-5.338
		c-0.047,0-0.095,0-0.143,0c0,0.02,0,0.038,0,0.056v4.301C192,187.969,192,187.995,192,188.023z"/>
	<path d="M209.942,193.023h-5.306c-2.382,0-5.644,0-5.644-5.076v-4.301c0-5.056,3.1-5.056,5.59-5.056h5.383
		c1.597,0,2.745,0,3.708,1.008c0.924,0.967,0.871,2.113,0.829,3.034c-0.013,0.275-0.028,0.608-0.028,1.014v4.28
		c0,0.393,0.015,0.72,0.025,0.993c0.04,0.94,0.089,2.111-0.846,3.085C212.677,193.023,211.47,193.023,209.942,193.023z
		 M203.993,188.021c0.217,0.002,0.444,0.002,0.644,0.002h4.838c0-0.032,0-0.065,0-0.098v-4.28c0-0.019,0-0.037,0-0.056h-4.88
		c-0.194,0-0.403,0-0.602,0.002c0,0.018,0,0.035,0,0.054v4.301C203.993,187.972,203.993,187.997,203.993,188.021z"/>
	<path d="M221.396,193.023h-5.308c-1.651,0-2.955,0-4.014-1.072c-1.04-1.054-1.04-2.352-1.04-3.995v-4.442
		c-0.001-1.606-0.001-2.875,1.071-3.915c1.04-1.009,2.314-1.009,3.928-1.009h5.384c1.646,0,2.942,0,3.999,1.026
		c1.098,1.066,1.098,2.439,1.098,4.03v4.28C226.514,191.832,225.317,193.023,221.396,193.023z M216.034,188.023
		c0.019,0,0.036,0,0.054,0h5.308c0.037,0,0.077,0,0.118,0c0-0.035,0-0.067,0-0.098v-4.28c0-0.018,0-0.037,0-0.056
		c-0.03,0-0.061,0-0.091,0h-5.378c-0.004,0-0.007,0-0.011,0v4.357C216.034,187.972,216.034,187.998,216.034,188.023z"/>
	<path d="M233.855,193.023h-5.305c-3.016,0-5.513-0.382-5.513-5.076v-4.301c0-4.675,2.472-5.056,5.457-5.056h5.383
		c1.558,0,2.784,0,3.766,1.008c0.947,0.973,0.916,2.146,0.889,3.182c-0.007,0.246-0.015,0.533-0.015,0.866v4.28
		c0,0.318,0.007,0.595,0.013,0.835c0.024,1.06,0.054,2.26-0.905,3.242C236.628,193.023,235.404,193.023,233.855,193.023z
		 M228.038,188.021c0.176,0.001,0.354,0.001,0.513,0.001h4.967c0-0.032,0-0.065,0-0.098v-4.28c0-0.019,0-0.037,0-0.056h-5.011
		c-0.151,0-0.312,0-0.469,0.001c0,0.018,0,0.036,0,0.055v4.301C228.038,187.972,228.038,187.997,228.038,188.021z"/>
	<path d="M245.494,193.023h-5.306c-3.973,0-5.121-1.139-5.121-5.076v-4.301c0-3.922,1.136-5.056,5.064-5.056h5.383
		c1.637,0,2.925,0,3.971,1.029c1.063,1.045,1.063,2.331,1.063,3.958v4.349c0,1.646,0,2.942-1.024,3.998
		C248.457,193.023,247.084,193.023,245.494,193.023z M240.067,188.023c0.041,0,0.082,0,0.121,0h5.306c0.018,0,0.035,0,0.054,0
		c0-0.031,0-0.062,0-0.092v-4.286c0-0.019,0-0.037,0-0.056c-0.009,0-0.019,0-0.027,0h-5.377c-0.025,0-0.051,0-0.076,0
		c0,0.019,0,0.038,0,0.056v4.301C240.067,187.971,240.067,187.996,240.067,188.023z"/>
	<path d="M257.767,193.023h-5.306c-3.049,0-5.382-0.374-5.382-5.076v-4.301c0-4.274,1.794-5.056,5.327-5.056h5.383
		c1.583,0,2.828,0,3.83,1.014c0.975,0.987,0.96,2.201,0.944,3.375l-0.005,4.946l0.004,0.625c0.013,1.203,0.026,2.446-0.961,3.443
		C260.584,193.023,259.278,193.023,257.767,193.023z M252.079,188.022c0.132,0,0.263,0,0.382,0h5.099l-0.001-4.433h-5.141
		c-0.109,0-0.225,0-0.339,0c0,0.018,0,0.037,0,0.055v4.301C252.079,187.973,252.079,187.998,252.079,188.022z"/>
	<path d="M269.526,193.023h-5.306c-3.973,0-5.121-1.139-5.121-5.076v-4.301c0-3.922,1.136-5.056,5.065-5.056h5.384
		c1.636,0,2.924,0,3.969,1.028c1.063,1.045,1.063,2.33,1.063,3.956v4.352c0,1.646,0,2.942-1.024,3.998
		C272.489,193.023,271.116,193.023,269.526,193.023z M264.1,188.023c0.041,0,0.082,0,0.121,0h5.306c0.018,0,0.035,0,0.054,0
		c0-0.031,0-0.062,0-0.092v-4.286c0-0.019,0-0.037,0-0.056c-0.009,0-0.017,0-0.025,0h-5.378c-0.025,0-0.052,0-0.077,0
		c0,0.019,0,0.038,0,0.056v4.301C264.1,187.971,264.1,187.996,264.1,188.023z"/>
	<path d="M285.75,193.286h-7.031c-3.702,0-5.972-0.245-5.972-5.077v-4.3c0-4.557,1.89-5.055,5.899-5.055h7.134
		c2.159,0,3.344,0,4.426,0.804c1.427,1.061,1.427,2.647,1.427,4.182v4.349c0,1.624,0,3.151-1.388,4.231
		C289.132,193.286,287.786,193.286,285.75,193.286z M277.747,188.282c0.314,0.004,0.659,0.004,0.972,0.004h7.031
		c0.273,0,0.588,0,0.883-0.003c0-0.03,0-0.059,0-0.087v-4.287c0-0.018,0-0.035,0-0.053c-0.267-0.002-0.558-0.002-0.845-0.002h-7.126
		c-0.306,0-0.624,0-0.915,0.003c0,0.018,0,0.035,0,0.052v4.3C277.747,188.231,277.747,188.255,277.747,188.282z"/>
	<path d="M298.632,192.762h-5.307c-3.972,0-5.12-1.139-5.12-5.078v-4.3c0-3.921,1.137-5.055,5.066-5.055h5.384
		c1.636,0,2.923,0,3.969,1.028c1.063,1.045,1.063,2.33,1.063,3.956v4.352c0,1.646,0,2.941-1.024,3.998
		C301.596,192.762,300.223,192.762,298.632,192.762z M293.205,187.762c0.041,0,0.081,0,0.12,0h5.307c0.018,0,0.036,0,0.055,0
		c0-0.031,0-0.062,0-0.092v-4.286c0-0.019,0-0.037,0-0.055c-0.009,0-0.017,0-0.025,0h-5.378c-0.026,0-0.052,0-0.078,0
		c0,0.019,0,0.037,0,0.055v4.3C293.205,187.708,293.205,187.734,293.205,187.762z"/>
	<path d="M161.55,193.023h-5.305c-3.512,0-5.296-0.785-5.296-5.076v-4.301c0-4.299,1.69-5.056,5.24-5.056h5.383
		c1.602,0,2.863,0,3.879,1.022c0.996,1.002,0.989,2.233,0.981,3.536l-0.002,4.777l0.001,0.451c0.006,1.334,0.012,2.596-0.997,3.609
		C164.402,193.023,163.081,193.023,161.55,193.023z M155.949,188.022c0.102,0,0.203,0,0.296,0h5.186l0-4.433h-5.229
		c-0.082,0-0.167,0-0.252,0c0,0.019,0,0.037,0,0.056v4.301C155.949,187.973,155.949,187.998,155.949,188.022z"/>
	<path d="M149.68,193.023h-5.306c-2.981,0-5.448-0.382-5.448-5.076v-4.301c0-4.684,2.337-5.056,5.393-5.056h5.382
		c1.57,0,2.806,0,3.797,1.01c0.961,0.979,0.939,2.146,0.918,3.274c-0.004,0.225-0.009,0.48-0.009,0.771v4.28
		c0,0.275,0.004,0.52,0.008,0.737c0.019,1.154,0.039,2.348-0.934,3.337C152.474,193.023,151.241,193.023,149.68,193.023z
		 M143.926,188.022c0.154,0.001,0.309,0.001,0.448,0.001h5.033c0-0.032,0-0.065,0-0.098v-4.28c0-0.019,0-0.037,0-0.056h-5.077
		c-0.131,0-0.269,0-0.405,0c0,0.018,0,0.037,0,0.055v4.301C143.926,187.973,143.926,187.998,143.926,188.022z"/>
	<path d="M129.96,205.6h-5.306c-3.052,0-5.578-0.382-5.578-5.077v-4.301c0-4.674,2.501-5.054,5.523-5.054h5.383
		c1.607,0,2.764,0,3.736,1.007c0.935,0.969,0.893,2.151,0.859,3.102c-0.01,0.262-0.021,0.574-0.021,0.945v4.28
		c0,0.357,0.01,0.662,0.019,0.92c0.033,1.022,0.07,2.182-0.876,3.158C132.712,205.6,131.498,205.6,129.96,205.6z M124.076,200.598
		c0.196,0.002,0.399,0.002,0.578,0.002h4.902c0-0.032,0-0.065,0-0.098v-4.28c0-0.018,0-0.036,0-0.054h-4.945
		c-0.173,0-0.357,0-0.535,0.001c0,0.017,0,0.035,0,0.053v4.301C124.076,200.548,124.076,200.573,124.076,200.598z"/>
	<path d="M115.695,205.513h-10.593c-4.831,0-8.646,0-8.646-5.077v-4.301c0-5.054,3.581-5.054,8.536-5.054h10.748
		c3.484,0,4.784,0,5.873,1.169c0.949,1.019,0.863,2.228,0.807,3.028c-0.017,0.238-0.039,0.521-0.039,0.857v4.281
		c0,0.326,0.019,0.604,0.034,0.839c0.052,0.815,0.131,2.047-0.829,3.071C120.474,205.513,119.075,205.513,115.695,205.513z
		 M101.456,200.425c0.808,0.088,2.298,0.088,3.646,0.088h10.593c0.547,0,1.156,0,1.686-0.008c0-0.03,0-0.06,0-0.089v-4.281
		c0-0.017,0-0.033,0-0.049c-0.484-0.005-1.05-0.005-1.629-0.005h-10.736c-1.376,0-2.775,0-3.56,0.076V200.425z"/>
	<path d="M141.9,205.6h-5.306c-3.007,0-5.496-0.382-5.496-5.077v-4.301c0-4.674,2.464-5.054,5.44-5.054h5.383
		c1.561,0,2.789,0,3.773,1.008c0.951,0.974,0.922,2.16,0.896,3.206c-0.006,0.241-0.013,0.519-0.013,0.84v4.28
		c0,0.307,0.006,0.576,0.011,0.81c0.023,1.07,0.049,2.283-0.914,3.267C144.678,205.6,143.452,205.6,141.9,205.6z M136.099,200.598
		c0.17,0.001,0.341,0.001,0.496,0.001h4.985c0-0.032,0-0.065,0-0.098v-4.28c0-0.018,0-0.036,0-0.054h-5.029
		c-0.146,0-0.3,0-0.452,0.001c0,0.017,0,0.035,0,0.053v4.301C136.099,200.549,136.099,200.574,136.099,200.598z"/>
	<path d="M177.78,205.6h-5.306c-3.526,0-5.316-0.785-5.316-5.077v-4.301c0-4.298,1.697-5.054,5.262-5.054h5.382
		c1.598,0,2.854,0,3.867,1.02c0.99,0.998,0.981,2.209,0.972,3.493l-0.002,4.821L182.64,201c0.008,1.314,0.015,2.555-0.988,3.565
		C180.623,205.6,179.306,205.6,177.78,205.6z M172.158,200.599c0.109,0,0.217,0,0.316,0h5.165l0-4.378l0-0.054h-5.208
		c-0.089,0-0.181,0-0.273,0c0,0.018,0,0.036,0,0.054v4.301C172.158,200.549,172.158,200.574,172.158,200.599z"/>
	<path d="M189.58,205.6h-5.306c-3.954,0-5.098-1.139-5.098-5.077v-4.301c0-1.649,0-2.949,1.047-4
		c1.051-1.055,2.351-1.055,3.996-1.055h5.383c1.653,0,2.953,0,4.004,1.051c1.05,1.051,1.05,2.352,1.05,3.999v4.284
		C194.657,204.456,193.519,205.6,189.58,205.6z M184.176,200.6c0.033,0,0.066,0,0.098,0h5.306c0.025,0,0.05,0,0.077,0
		c0-0.033,0-0.066,0-0.098v-4.28c0-0.018,0-0.036,0-0.054c-0.016,0-0.033,0-0.049,0h-5.377c-0.019,0-0.037,0-0.055,0
		c0,0.017,0,0.033,0,0.05v4.306C184.176,200.547,184.176,200.573,184.176,200.6z"/>
	<path d="M201.684,205.6h-5.305c-3.513,0-5.185-0.76-5.185-5.077v-4.301c0-3.92,1.15-5.054,5.129-5.054h5.384
		c1.629,0,2.911,0,3.946,1.036c1.025,1.026,1.023,2.299,1.021,3.772v4.713c0.001,1.522,0.002,2.835-1.058,3.877
		C204.566,205.6,203.23,205.6,201.684,205.6z M196.194,200.6c0.063,0,0.126,0,0.185,0h5.296v-4.432h-5.34c-0.047,0-0.094,0-0.141,0
		c0,0.019,0,0.037,0,0.054v4.301C196.194,200.545,196.194,200.571,196.194,200.6z"/>
	<path d="M214.136,205.6h-5.306c-2.382,0-5.645,0-5.645-5.077v-4.301c0-5.054,3.1-5.054,5.59-5.054h5.384
		c1.596,0,2.744,0,3.707,1.008c0.924,0.967,0.871,2.112,0.829,3.033c-0.013,0.274-0.028,0.608-0.028,1.013v4.28
		c0,0.393,0.014,0.72,0.025,0.993c0.039,0.94,0.089,2.112-0.846,3.086C216.869,205.6,215.663,205.6,214.136,205.6z M208.186,200.597
		c0.217,0.002,0.445,0.002,0.645,0.002h4.837c0-0.032,0-0.065,0-0.098v-4.28c0-0.018,0-0.036,0-0.054h-4.88
		c-0.194,0-0.403,0-0.602,0.002c0,0.017,0,0.035,0,0.052v4.301C208.186,200.548,208.186,200.573,208.186,200.597z"/>
	<path d="M225.586,205.6h-5.306c-1.651,0-2.956,0-4.015-1.073c-1.039-1.054-1.039-2.354-1.039-3.998v-4.438
		c-0.001-1.606-0.001-2.875,1.071-3.915c1.04-1.009,2.315-1.009,3.929-1.009h5.382c1.646,0,2.942,0,3.999,1.025
		c1.099,1.066,1.099,2.439,1.099,4.029v4.28C230.706,204.408,229.51,205.6,225.586,205.6z M220.227,200.6c0.019,0,0.036,0,0.054,0
		h5.306c0.038,0,0.078,0,0.12,0c0-0.035,0-0.067,0-0.098v-4.28c0-0.018,0-0.036,0-0.054c-0.031,0-0.062,0-0.092,0h-5.376
		c-0.004,0-0.008,0-0.012,0v4.355C220.227,200.548,220.227,200.574,220.227,200.6z"/>
	<path d="M238.048,205.6h-5.306c-3.016,0-5.513-0.382-5.513-5.077v-4.301c0-4.674,2.473-5.054,5.459-5.054h5.383
		c1.558,0,2.783,0,3.765,1.008c0.947,0.973,0.916,2.146,0.889,3.181c-0.007,0.246-0.015,0.532-0.015,0.865v4.28
		c0,0.319,0.007,0.596,0.013,0.836c0.025,1.059,0.054,2.259-0.905,3.241C240.82,205.6,239.597,205.6,238.048,205.6z
		 M232.229,200.598c0.176,0.001,0.354,0.001,0.513,0.001h4.968c0-0.032,0-0.065,0-0.098v-4.28c0-0.018,0-0.036,0-0.054h-5.01
		c-0.152,0-0.313,0-0.471,0.001c0,0.018,0,0.035,0,0.053v4.301C232.229,200.549,232.229,200.574,232.229,200.598z"/>
	<path d="M249.685,205.6h-5.305c-3.971,0-5.119-1.139-5.119-5.077v-4.301c0-3.92,1.136-5.054,5.064-5.054h5.383
		c1.636,0,2.923,0,3.968,1.027c1.063,1.045,1.063,2.33,1.063,3.955v4.352c0,1.646,0,2.942-1.024,3.999
		C252.648,205.6,251.275,205.6,249.685,205.6z M244.261,200.6c0.041,0,0.08,0,0.119,0h5.305c0.018,0,0.036,0,0.055,0
		c0-0.031,0-0.062,0-0.092v-4.286c0-0.018,0-0.036,0-0.054c-0.009,0-0.017,0-0.025,0h-5.377c-0.025,0-0.051,0-0.076,0
		c0,0.019,0,0.037,0,0.054v4.301C244.261,200.547,244.261,200.573,244.261,200.6z"/>
	<path d="M261.959,205.6h-5.306c-3.05,0-5.383-0.374-5.383-5.077v-4.301c0-4.272,1.794-5.054,5.328-5.054h5.384
		c1.583,0,2.828,0,3.83,1.014c0.975,0.987,0.959,2.202,0.944,3.376l-0.005,4.944l0.004,0.625c0.013,1.202,0.026,2.446-0.961,3.444
		C264.776,205.6,263.471,205.6,261.959,205.6z M256.271,200.599c0.132,0,0.263,0,0.383,0h5.1l-0.001-4.432h-5.142
		c-0.11,0-0.225,0-0.34,0c0,0.018,0,0.036,0,0.054v4.301C256.271,200.549,256.271,200.574,256.271,200.599z"/>
	<path d="M273.718,205.6h-5.305c-3.973,0-5.121-1.139-5.121-5.077v-4.301c0-3.92,1.136-5.054,5.065-5.054h5.383
		c1.637,0,2.926,0,3.972,1.029c1.062,1.046,1.062,2.331,1.062,3.959v4.346c0,1.647,0,2.943-1.025,4
		C276.682,205.6,275.309,205.6,273.718,205.6z M268.292,200.6c0.041,0,0.082,0,0.121,0h5.305c0.018,0,0.036,0,0.056,0
		c0-0.031,0-0.062,0-0.092v-4.286c0-0.018,0-0.036,0-0.054c-0.009,0-0.019,0-0.027,0h-5.377c-0.025,0-0.052,0-0.077,0
		c0,0.018,0,0.037,0,0.054v4.301C268.292,200.547,268.292,200.573,268.292,200.6z"/>
	<path d="M286.037,205.533h-5.451c-4.027,0-5.192-1.135-5.192-5.057v-4.269c0-3.906,1.152-5.035,5.139-5.035h5.53
		c1.715,0,2.95,0,3.999,0.997c1.102,1.048,1.102,2.403,1.102,3.972v4.313c0,1.651,0,2.953-1.063,4.012
		C289.029,205.533,287.709,205.533,286.037,205.533z M280.394,200.533c0.066,0,0.131,0,0.192,0h5.451c0.04,0,0.082,0,0.126,0
		c0-0.025,0-0.051,0-0.076v-4.25c0-0.012,0-0.023,0-0.035c-0.032,0-0.064,0-0.096,0h-5.526c-0.049,0-0.098,0-0.147,0
		c0,0.012,0,0.023,0,0.035v4.269C280.394,200.494,280.394,200.513,280.394,200.533z"/>
	<path d="M298.8,205.6h-5.307c-3.973,0-5.121-1.139-5.121-5.077v-4.301c0-3.92,1.137-5.054,5.066-5.054h5.382
		c1.637,0,2.925,0,3.971,1.028c1.063,1.045,1.063,2.33,1.063,3.957v4.349c0,1.646,0,2.942-1.024,3.999
		C301.764,205.6,300.39,205.6,298.8,205.6z M293.372,200.6c0.041,0,0.082,0,0.121,0h5.307c0.018,0,0.035,0,0.054,0
		c0-0.031,0-0.062,0-0.092v-4.286c0-0.018,0-0.036,0-0.054c-0.009,0-0.019,0-0.027,0h-5.376c-0.026,0-0.052,0-0.078,0
		c0,0.018,0,0.037,0,0.054v4.301C293.372,200.547,293.372,200.573,293.372,200.6z"/>
	<path d="M165.743,205.6h-5.306c-3.512,0-5.295-0.785-5.295-5.077v-4.301c0-4.298,1.689-5.054,5.239-5.054h5.383
		c1.603,0,2.863,0,3.879,1.022c0.996,1.002,0.988,2.232,0.98,3.534l-0.002,4.778l0.001,0.453c0.006,1.334,0.012,2.595-0.997,3.608
		C168.595,205.6,167.273,205.6,165.743,205.6z M160.142,200.599c0.102,0,0.202,0,0.295,0h5.186l0-4.432h-5.229
		c-0.082,0-0.166,0-0.251,0c0,0.018,0,0.036,0,0.054v4.301C160.142,200.549,160.142,200.575,160.142,200.599z"/>
	<path d="M153.873,205.6h-5.306c-2.98,0-5.447-0.382-5.447-5.077v-4.301c0-4.682,2.337-5.054,5.393-5.054h5.382
		c1.57,0,2.806,0,3.797,1.01c0.96,0.979,0.938,2.145,0.917,3.273c-0.004,0.225-0.009,0.48-0.009,0.771v4.28
		c0,0.275,0.004,0.52,0.008,0.737c0.019,1.154,0.039,2.349-0.934,3.338C156.666,205.6,155.433,205.6,153.873,205.6z
		 M148.119,200.599c0.154,0.001,0.308,0.001,0.447,0.001h5.033c0-0.032,0-0.065,0-0.098v-4.28c0-0.018,0-0.036,0-0.054h-5.076
		c-0.13,0-0.268,0-0.404,0c0,0.018,0,0.036,0,0.054v4.301C148.119,200.549,148.119,200.574,148.119,200.599z"/>
	<path d="M107.631,219.008h-5.306c-3.052,0-5.579-0.398-5.579-5.299v-4.675c0-4.879,2.502-5.275,5.524-5.275h5.383
		c1.534,0,2.741,0,3.719,1.011c0.949,0.98,0.91,2.172,0.875,3.223c-0.009,0.289-0.021,0.633-0.021,1.042v4.651
		c0,0.394,0.01,0.729,0.019,1.014c0.032,1.076,0.068,2.296-0.893,3.285C110.359,219.008,109.095,219.008,107.631,219.008z
		 M101.749,214.006c0.195,0.002,0.397,0.002,0.576,0.002h4.904c-0.001-0.104-0.002-0.211-0.002-0.322v-4.651
		c0-0.095,0-0.187,0.001-0.275h-4.947c-0.172,0-0.356,0-0.533,0.001c-0.001,0.083-0.002,0.175-0.002,0.274v4.675
		C101.746,213.818,101.747,213.917,101.749,214.006z"/>
	<path d="M120.509,219.008h-5.306c-3.006,0-5.495-0.398-5.495-5.299v-4.675c0-4.46,1.833-5.275,5.441-5.275h5.382
		c1.548,0,2.767,0,3.757,1.013c0.966,0.988,0.939,2.184,0.913,3.34c-0.006,0.265-0.013,0.569-0.013,0.923v4.651
		c0,0.337,0.006,0.632,0.011,0.889c0.023,1.185,0.048,2.409-0.93,3.407C123.263,219.008,121.987,219.008,120.509,219.008z
		 M114.711,214.007c0.168,0.001,0.339,0.001,0.493,0.001h4.987c-0.001-0.104-0.001-0.211-0.001-0.322v-4.651
		c0-0.095,0-0.187,0.001-0.275h-5.03c-0.145,0-0.299,0-0.45,0.001c-0.001,0.083-0.002,0.175-0.002,0.274v4.675
		C114.708,213.818,114.709,213.917,114.711,214.007z"/>
	<path d="M231.18,278.198h-62.447c-5.436,0-8.165,0-8.165-5.328v-30.217c0-6.485,2.918-6.485,9.968-6.485h59.742
		c3.043,0,4.432,0,5.664,0.79c1.768,1.133,1.768,2.948,1.768,4.87v30.786c0,1.95,0,3.579-1.504,4.707
		C235.035,278.198,233.666,278.198,231.18,278.198z M165.568,273.157c0.762,0.041,1.94,0.041,3.164,0.041h62.447
		c0.538,0,1.086,0,1.529-0.011c0.001-0.167,0.001-0.342,0.001-0.51v-30.795c0-0.228,0-0.467-0.002-0.687
		c-0.634-0.028-1.542-0.028-2.43-0.028h-59.742c-1.707,0-3.951,0-4.947,0.154c-0.021,0.377-0.021,0.906-0.021,1.331v30.217
		C165.568,272.96,165.568,273.058,165.568,273.157z"/>
	<path d="M195.833,288.207h-30.019c-2.567,0-5.223,0-5.223-3.118v-6.599c0-3.369,2.687-3.369,6.088-3.369h28.719
		c1.51,0,2.136,0,2.774,0.186c0.631,0.185,2.098,0.845,2.098,3.005v6.723c0,2.001-1.213,2.711-1.937,2.957
		C197.701,288.207,197.116,288.207,195.833,288.207z M165.592,283.207c0.074,0,0.148,0,0.223,0h29.457v-3.086H166.68
		c-0.338,0-0.721,0-1.088,0.002V283.207z"/>
	<path d="M233.215,288.163h-30.461c-2.707,0-5.264,0-5.264-3.118v-6.599c0-3.369,2.576-3.369,6.142-3.369h29.143
		c1.526,0,2.157,0,2.797,0.184c0.635,0.183,2.11,0.841,2.11,3.009v6.72c0,2.007-1.221,2.716-1.948,2.961
		C235.1,288.163,234.509,288.163,233.215,288.163z M202.49,283.163c0.087,0,0.175,0,0.264,0h29.928v-3.086h-29.05
		c-0.367,0-0.766,0-1.142,0.003V283.163z"/>
	<path d="M250.739,219.052h-5.306c-1.613,0-3.006,0-4.073-1.157c-0.981-1.063-0.981-2.334-0.981-4.092v-4.743
		c-0.001-1.65-0.001-2.953,1.012-4.005c1.051-1.09,2.348-1.09,3.99-1.09h5.382c1.674,0,2.991,0,4.058,1.106
		c1.04,1.079,1.04,2.424,1.04,4.126v4.576C255.86,217.868,254.712,219.052,250.739,219.052z M245.379,214.052
		c0.019,0,0.037,0,0.055,0h5.306c0.038,0,0.078,0,0.121,0c0-0.103,0-0.197,0-0.278v-4.576c0-0.072,0-0.151,0-0.232
		c-0.031,0-0.062,0-0.092,0h-5.377c-0.004,0-0.009,0-0.013,0c0,0.031,0,0.063,0,0.094v4.738
		C245.379,213.881,245.379,213.967,245.379,214.052z"/>
	<path d="M263.202,219.052h-5.307c-3.016,0-5.513-0.396-5.513-5.255v-4.6c0-4.847,2.366-5.232,5.46-5.232h5.382
		c1.547,0,2.765,0,3.752,1.012c0.959,0.982,0.93,2.153,0.901,3.286c-0.007,0.266-0.015,0.575-0.015,0.935v4.576
		c0,0.344,0.007,0.643,0.013,0.901c0.025,1.16,0.052,2.359-0.919,3.352C265.954,219.052,264.679,219.052,263.202,219.052z
		 M257.385,214.051c0.174,0.001,0.352,0.001,0.511,0.001h4.969c-0.001-0.09-0.001-0.183-0.001-0.278v-4.576
		c0-0.08,0-0.157,0.001-0.232h-5.011c-0.151,0-0.313,0-0.47,0.001c-0.001,0.071-0.001,0.148-0.001,0.231v4.6
		C257.383,213.889,257.384,213.973,257.385,214.051z"/>
	<path d="M274.838,219.052h-5.305c-3.972,0-5.12-1.179-5.12-5.255v-4.6c0-4.107,1.089-5.232,5.066-5.232h5.382
		c1.665,0,2.976,0,4.031,1.112c1.002,1.057,1.002,2.313,1.002,4.053v4.644c0,1.761,0,3.028-0.969,4.095
		C277.853,219.052,276.455,219.052,274.838,219.052z M269.413,214.052c0.041,0,0.081,0,0.12,0h5.305c0.019,0,0.037,0,0.057,0
		c0-0.091,0-0.183,0-0.272v-4.582c0-0.078,0-0.155,0-0.232c-0.01,0-0.019,0-0.027,0h-5.377c-0.025,0-0.051,0-0.077,0
		c0,0.08,0,0.158,0,0.232v4.6C269.413,213.872,269.413,213.959,269.413,214.052z"/>
	<path d="M287.112,219.052h-5.306c-3.57,0-5.383-0.813-5.383-5.255v-4.6c0-4.449,1.719-5.232,5.329-5.232h5.383
		c1.572,0,2.81,0,3.815,1.019c0.988,0.999,0.974,2.212,0.959,3.496l-0.006,5.294l0.004,0.676c0.014,1.315,0.026,2.558-0.975,3.569
		C289.91,219.052,288.613,219.052,287.112,219.052z M281.425,214.051c0.132,0.001,0.263,0.001,0.382,0.001h5.1l-0.002-4.854
		l0.002-0.232h-5.143c-0.109,0-0.225,0-0.339,0c-0.001,0.072-0.001,0.149-0.001,0.232v4.6
		C281.424,213.889,281.424,213.973,281.425,214.051z"/>
	<path d="M298.872,219.052h-5.306c-3.973,0-5.121-1.179-5.121-5.255v-4.6c0-4.059,1.137-5.232,5.066-5.232h5.382
		c1.664,0,2.974,0,4.028,1.11c1.004,1.056,1.004,2.312,1.004,4.049v4.649c0,1.763,0,3.029-0.968,4.096
		C301.885,219.052,300.488,219.052,298.872,219.052z M293.445,214.052c0.042,0,0.082,0,0.121,0h5.306c0.018,0,0.035,0,0.054,0
		c0-0.09,0-0.181,0-0.269v-4.586c0-0.078,0-0.155,0-0.232c-0.009,0-0.018,0-0.026,0h-5.377c-0.025,0-0.051,0-0.077,0
		c0,0.08,0,0.158,0,0.232v4.6C293.445,213.872,293.445,213.959,293.445,214.052z"/>
	<path d="M238.339,218.993H153.85c-4.221,0-4.557-2.303-4.557-5.313v-4.7c0-4.769,1.879-5.29,5.869-5.29h83.278
		c1.489,0,2.888,0,3.926,1.197c0.9,1.039,0.899,2.209,0.899,3.979v4.9c0,1.721,0.001,2.963-0.922,4.017
		C241.283,218.993,239.854,218.993,238.339,218.993z M154.294,213.993h83.972c0-0.076,0-0.152,0-0.227v-4.902
		c0-0.058,0-0.116,0-0.175h-83.083c-0.298,0-0.607,0-0.889,0.003c0,0.111,0,0.212,0,0.287v4.7
		C154.293,213.763,154.293,213.872,154.294,213.993z"/>
	<path d="M133.42,219.008h-5.306c-3.613,0-5.448-0.819-5.448-5.299v-4.675c0-4.46,1.816-5.275,5.394-5.275h5.382
		c1.557,0,2.783,0,3.78,1.016c0.976,0.993,0.955,2.224,0.934,3.414c-0.004,0.246-0.009,0.526-0.009,0.846v4.651
		c0,0.303,0.004,0.57,0.008,0.81c0.02,1.274,0.038,2.479-0.951,3.483C136.19,219.008,134.907,219.008,133.42,219.008z
		 M127.668,214.007c0.153,0.001,0.307,0.001,0.446,0.001h5.035c-0.001-0.104-0.001-0.211-0.001-0.322v-4.651
		c0-0.095,0-0.187,0.001-0.275h-5.078c-0.13,0-0.267,0-0.403,0.001c-0.001,0.083-0.001,0.175-0.001,0.274v4.675
		C127.667,213.818,127.667,213.917,127.668,214.007z"/>
	<path d="M146.376,219.008h-5.306c-3.613,0-5.448-0.819-5.448-5.299v-4.675c0-4.46,1.816-5.275,5.394-5.275h5.382
		c1.557,0,2.783,0,3.78,1.016c0.976,0.992,0.955,2.223,0.934,3.412c-0.004,0.247-0.009,0.528-0.009,0.848v4.651
		c0,0.303,0.004,0.571,0.008,0.811c0.02,1.274,0.038,2.479-0.951,3.482C149.146,219.008,147.862,219.008,146.376,219.008z
		 M140.624,214.007c0.153,0.001,0.307,0.001,0.446,0.001h5.034c-0.001-0.104-0.001-0.211-0.001-0.322v-4.651
		c0-0.095,0-0.187,0.001-0.275h-5.077c-0.13,0-0.267,0-0.403,0.001c-0.001,0.083-0.001,0.175-0.001,0.274v4.675
		C140.622,213.818,140.623,213.917,140.624,214.007z"/>
</g>
<g id="Layer_2">
	<path d="M313.362,143H82.071L2.27,92.317L2.074,92.12c-0.455-0.456-2.669-2.86-1.611-5.407C1.589,84,5.127,84,6.29,84h387.705
		c0.112-0.006,0.305-0.014,0.55-0.014c3.497,0,4.78,1.451,5.24,2.668c1.074,2.842-1.895,5.462-3.013,6.449l-0.372,0.271L313.362,143
		z M83.524,138h228.457l81.649-48.795c0.079-0.071,0.152-0.139,0.223-0.205H6.374L83.524,138z"/>
	<path d="M313.616,134.029L33.229,98.981L33.54,94h341.721L313.616,134.029z M73.695,99l238.73,29.842L358.38,99H73.695z"/>
	<path d="M313.025,134H84.125L23.643,92.871l289.692,36.148L313.025,134z M85.664,129h187.137L43.607,100.401L85.664,129z"/>
	<path d="M395.817,91.362H4.663c-2.477,0-4.492-2.002-4.492-4.464v-0.263c0-1.348,0.619-4.482,6.348-4.482
		c0.254,0,0.523,0.006,0.806,0.017h385.798c6.226,0,6.897,3.123,6.897,4.465v0.263C400.021,89.442,398.214,91.362,395.817,91.362z"
		/>
	<g>
		<rect x="98.519" y="139.955" width="11.528" height="9.433"/>
		<path d="M112.547,151.888H96.019v-14.433h16.528V151.888z M101.019,146.888h6.528v-4.433h-6.528V146.888z"/>
	</g>
	<path d="M302.943,151.539h-16.529v-14.433h16.529V151.539z M291.414,146.539h6.529v-4.433h-6.529V146.539z"/>
</g>
</svg>
