<?xml version="1.0" encoding="utf-8"?>
<!-- Generator: Adobe Illustrator 16.0.3, SVG Export Plug-In . SVG Version: 6.00 Build 0)  -->
<!DOCTYPE svg PUBLIC "-//W3C//DTD SVG 1.1//EN" "http://www.w3.org/Graphics/SVG/1.1/DTD/svg11.dtd">
<svg version="1.1" id="Layer_1" xmlns="http://www.w3.org/2000/svg" xmlns:xlink="http://www.w3.org/1999/xlink" x="0px" y="0px"
	 width="400px" height="400px" viewBox="0 0 400 400" enable-background="new 0 0 400 400" xml:space="preserve">
<g id="Layer_3">
	<path d="M38.288,245.599c-1.839,0-3.546-0.056-5.075-0.163c-0.786-0.056-1.602-0.081-2.567-0.081c-0.428,0-0.838,0.004-1.235,0.009
		c-0.388,0.004-0.764,0.009-1.128,0.009c-4.83,0-8.112-1.096-12.646-7.084l-1.239-1.636l1.364-1.534
		c0.538-0.605,53.911-60.81,65.468-90.523c6.418-16.503,10.794-28.271,13.006-34.979c0.285-0.864,0.381-1.156,0.735-1.564
		l0.748-0.864l1.15-0.002c0.862,0,1.094,0,18.02,9.835l1.501,0.872l-4.495,26.051L88.43,207.982l-6.79,11.486
		c-0.424,0.593-10.437,14.55-14.798,18.361c-4.698,4.106-8.357,6.56-13.159,6.939l-1.283,0.104
		C48.879,245.162,43.556,245.599,38.288,245.599z M30.646,240.354c1.084,0,2.012,0.029,2.919,0.093c1.412,0.101,3,0.151,4.723,0.151
		c5.063,0,10.264-0.427,13.705-0.708l1.296-0.105c3.438-0.272,6.26-2.221,10.263-5.72c3.234-2.827,11.107-13.441,13.959-17.418
		l6.381-10.813l23.229-63.395l3.754-21.965c-4.785-2.774-9.745-5.621-12.59-7.212c-2.398,7.013-6.56,18.143-12.395,33.146
		c-10.951,28.156-56.225,80.467-64.991,90.447c3.045,3.517,4.832,3.518,7.384,3.518c0.347,0,0.704-0.004,1.072-0.009
		C29.77,240.359,30.199,240.354,30.646,240.354z"/>
	<path d="M191.351,307.675c-1.077,0-2.144-0.141-3.192-0.46c-0.943-0.286-1.809-0.494-2.727-0.714
		c-2.645-0.635-5.378-1.29-9.244-3.764l2.695-4.211c3.155,2.019,5.268,2.525,7.714,3.112c0.949,0.228,1.93,0.463,3.015,0.793
		c2.818,0.855,6.764-0.778,10.339-2.498c-0.259-2.899-6.166-12.141-9.564-16.44l-1.539-1.764l1.716-1.584
		c1.641-1.636,3.322-0.197,4.13,0.495c0.469,0.401,1.138,0.978,1.94,1.669c1.598,1.38,3.725,3.222,5.851,5.064
		c3.513,3.044,7.022,6.092,8.135,7.058c1.117,0.369,2.948,0.765,5.615-0.417c2.28-1.009,3.646-2.627,5.538-4.866
		c0.594-0.702,1.257-1.487,1.998-2.306c-0.258-4.521-14.84-24.751-17.841-28.307l0.04-0.034c-0.775-1.035-1.148-2.16,0.042-3.375
		l1.689-1.725l1.786,1.632c0.037,0.034,0.098,0.101,0.18,0.197l0.006-0.006c0.646,0.714,17.628,18.568,24.851,26.158
		c2.449,0.397,2.951,0.329,5.397-0.914c2.535-1.287,7.571-6.871,8.733-9.021c-0.806-1.731-4.418-7.274-18.174-24.642
		c-1.611-2.034-1.611-2.034-1.746-2.282l-1.055-1.945l1.803-1.287c1.792-1.275,3.098,0.115,4.251,1.341
		c0.617,0.656,1.494,1.597,2.544,2.728c2.093,2.253,4.875,5.263,7.655,8.273c4.8,5.198,9.591,10.401,10.81,11.726
		c2.368,1.218,3.531,1.51,3.962,1.579l0.428-0.049c4.828-0.554,7.418-5.5,8.965-8.455c0.2-0.384,0.384-0.733,0.552-1.038
		c0.708-1.285,0.617-6.998,0.094-11.32l4.963-0.602c0.306,2.52,1.16,10.998-0.677,14.335c-0.154,0.278-0.32,0.596-0.502,0.943
		c-1.851,3.535-5.273,10.074-12.534,11.067c-1.413,0.392-3.494-0.077-6.395-1.45c0.34,0.985,0.216,1.447,0.087,1.927
		c-0.849,3.16-7.727,10.715-11.5,12.631c-3.757,1.908-5.21,1.939-9.31,1.251l-0.822-0.139l-5.545-5.829
		c2.895,5.705,2.684,8.126,1.251,9.678c-0.794,0.861-1.491,1.688-2.167,2.487c-2.058,2.436-4.001,4.735-7.332,6.211
		c-4.877,2.159-8.428,0.881-9.765,0.399l-0.44-0.159l-0.353-0.306c-1.332-1.157-2.808-2.438-4.317-3.748
		c1.135,2.532,1.797,4.884,1.461,6.542c-0.259,1.284-1.021,2.292-2.142,2.84C198.991,305.968,195.105,307.675,191.351,307.675z"/>
	<path d="M120.13,122.901c-4.955,0-7.294-1.265-7.832-1.604l2.668-4.229l-1.334,2.114l1.27-2.153
		c0.115,0.064,12.07,6.145,48.025-15.968l0.227-0.14l0.251-0.089c0.398-0.14,9.596-3.307,16.553,0.694
		c1.667,0.482,5,2.692,13.224,10.887l-3.529,3.542c-6.86-6.837-9.732-8.842-10.674-9.398l-0.287,0.075l-0.917-0.584
		c-4.462-2.84-11.167-0.98-12.483-0.572C141.874,119.84,127.838,122.901,120.13,122.901z"/>
	<path fill="none" stroke="#000000" stroke-width="5" stroke-miterlimit="10" d="M77.415,213.504"/>
</g>
<g id="Layer_1_1_">
	<path d="M388.356,270.501c-1.984,0-4.326-1.215-7.244-3.735l-0.105-0.097c-0.675-0.654-16.697-16.335-31.661-43.162l-1.438-2.578
		l20.719-7.407l0.792,2.216l1.665-0.736c2.232,4.157,22.361,40.481,21.259,52.326l-0.096,0.489
		c-0.277,0.924-1.112,2.068-2.622,2.507C389.219,270.441,388.796,270.501,388.356,270.501z M384.44,263.033
		c1.332,1.145,2.279,1.758,2.91,2.086c-0.84-9.855-12.96-34.691-19.002-46.188l-13.179,4.711
		C368.945,247.552,383.492,262.097,384.44,263.033z"/>
	<path d="M-0.085,254.397L0.002,40.763l3.707,2.049c1.815,1.002,44.626,24.717,60.639,38.497
		c13.227,11.384,24.769,17.28,29.114,19.5c1.037,0.53,1.471,0.753,1.788,0.963c2.068,1.363,4.678,5.462,3.897,8.532
		c-0.1,0.395-11.273,41.847-14.752,48.221c-3.232,5.927-42.401,57.582-44.067,59.778l-0.302,0.332l-21.742,19.938L5.586,251.665
		L-0.085,254.397z M4.998,49.266l-0.08,195.905l9.933-10.234l21.63-19.835c11.386-15.012,41-54.341,43.525-58.972
		c2.848-5.218,13.359-43.363,14.295-47.055c0.054-0.693-1.147-2.696-1.803-3.128c-0.139-0.085-0.734-0.39-1.311-0.685
		c-4.491-2.294-16.42-8.389-30.101-20.163C48.152,73.968,15.947,55.447,4.998,49.266z"/>
</g>
<g id="Layer_2">
	<path d="M269.346,250.442l-0.597-4.323c-1.091-7.899-7.469-14.51-14.854-22.163c-5.303-5.495-10.786-11.178-15.151-18.163
		c-7.302-11.684-15.913-19.537-24.24-27.132c-3.272-2.984-6.363-5.803-9.258-8.756c-7.681-7.838-11.615-9.789-12.636-10.201
		c-1.798,0.24-8.768,1.594-12.938,8.423c-5.399,8.839-10.876,18.791-10.931,18.89c-0.315,0.555-7.45,12.912-18.156,12.912
		c-2.677,0-5.327-0.779-7.877-2.314c-6.12-3.686-9.401-7.432-9.751-11.133c-0.258-2.721,1.132-4.456,1.669-5.017
		c0.509-0.63,6.357-8.181,6.874-22.395c0.568-15.699,4.365-19.859,7.61-21.73c1.777-1.024,9.185-4.484,10.024-4.875
		c0.217-0.099,19.675-9.019,28.454-19.342c4.068-4.784,9.481-7.313,15.654-7.313c5.384,0,9.511,1.928,9.684,2.01l0.288,0.161
		c19.187,12.432,35.513,15.041,45.83,15.041c6.9,0,11.721-1.123,13.979-1.792c0.301-0.089,0.614-0.134,0.933-0.134
		c2.24,0,4.361,2.071,7.827,7.642c5.484,8.814,13.942,26.047,25.139,51.221c4.349,9.777,8.246,18.827,10.751,24.696
		c1.373,3.219,2.482,5.847,3.25,7.669c1.633,3.883,1.633,3.883,1.127,4.911l-0.522,1.06l-1.149,0.27
		c-14.903,3.496-47.277,28.922-47.603,29.178L269.346,250.442z M192.983,154.648l0.286,0.047c0.811,0.133,5.371,1.325,15.546,11.71
		c2.797,2.853,5.838,5.626,9.057,8.562c8.178,7.458,17.446,15.911,25.111,28.176c4.087,6.541,9.386,12.031,14.509,17.342
		c6.552,6.789,12.792,13.256,15.283,20.938c8.094-6.163,29.973-22.254,43.651-26.91c-12.585-30.204-36.408-83.402-42.666-88.296
		c-2.734,0.75-7.809,1.804-14.719,1.805c-10.961,0-28.243-2.734-48.384-15.737c-0.637-0.272-3.666-1.474-7.418-1.474
		c-4.728,0-8.713,1.868-11.845,5.552c-9.506,11.179-29.333,20.263-30.173,20.645c-2.202,1.027-8.271,3.889-9.617,4.665
		c-3.033,1.749-4.752,7.663-5.11,17.58c-0.606,16.681-7.823,25.18-8.129,25.533l-0.194,0.211c-0.107,0.145-0.314,0.513-0.227,1.12
		c0.132,0.92,1.113,3.465,7.341,7.216c1.76,1.06,3.542,1.598,5.297,1.598c7.703,0,13.732-10.247,13.791-10.35
		c0.039-0.071,5.569-10.119,11.03-19.058c6.098-9.984,16.836-10.821,17.29-10.852L192.983,154.648z"/>
	<path d="M339.672,226.206c-9.225,0-16.524-2.818-21.695-8.376l-0.145-0.17c-4.939-6.363-12.877-25.155-21.28-45.051
		c-7.819-18.513-18.491-43.779-22.318-46.347h-0.859l-0.762-0.909c-0.232-0.283-1.374-1.791-0.982-3.761
		c0.189-0.953,0.806-2.297,2.665-3.285c0.684-0.363,1.775-0.775,3.288-1.346c4.745-1.789,13.543-5.106,17.39-10.043
		c0.536-0.859,1.625-1.713,3.254-1.713c2.453,0,6.951,1.775,17.652,17.127c0.994,1.425,2.067,2.958,3.207,4.587
		c15.145,21.639,43.336,61.918,52.247,88.525l0.687,2.049l-1.928,0.976C369.468,218.785,354.629,226.206,339.672,226.206z
		 M321.714,214.506c4.185,4.446,10.226,6.7,17.958,6.7c10.728,0,21.781-4.343,26.184-6.282
		c-9.429-25.933-36.267-64.278-50.866-85.137c-1.142-1.631-2.217-3.167-3.212-4.595c-8.214-11.783-11.967-14.305-13.147-14.843
		c-4.812,5.835-14.181,9.368-19.282,11.292c-0.765,0.288-1.501,0.565-2.035,0.784c4.522,3.692,10.573,16.817,23.845,48.24
		C309.026,189.294,317.162,208.557,321.714,214.506z"/>
	<path d="M149.604,188.999h-14.182l-0.743-1.123c-0.761-1.152-0.522-1.714,0.629-4.414c3.166-7.429,4.779-11.813,4.795-13.031
		l-0.085-0.873l0.482-0.668c0.254-0.391,2.592-3.821,6.218-3.821c0.448,0,0.898,0.054,1.337,0.161
		c1.838,0.445,5.665,1.373,7.515,4.448c1.062,1.766,1.291,3.875,0.679,6.271c-1.549,6.064-5.719,11.789-5.896,12.029
		L149.604,188.999z M140.511,183.999h6.508c1.154-1.76,3.427-5.535,4.385-9.287c0.405-1.585,0.01-2.241-0.119-2.456
		c-0.773-1.286-3.138-1.858-4.409-2.167c-0.055-0.013-0.106-0.02-0.158-0.02c-0.492,0-1.184,0.552-1.671,1.098
		C144.772,173.311,143.438,177.058,140.511,183.999z"/>
	<g>
		<path d="M387.187,270.291c-1.075-0.16-1.964-0.653-2.132-0.751l2.225-4.466c0.039,0.016,0.434,0.176,1.016,0.356L387.187,270.291z
			"/>
		<path d="M390.598,269.245c-0.2,0.203-0.423,0.381-0.664,0.531 M384.594,267.654c0.211-0.66,0.772-1.385,2.146-1.737
			c0.019-0.012,0.042-0.028,0.071-0.049c0.004-0.245-0.021-0.689-0.169-1.406l-0.024-0.139c-0.008-0.057-0.864-5.73-3.498-12.21
			l-0.479-1.182c-2.542-6.269-4.738-11.683-9.235-20.5c-2.339-4.586-3.548-6.919-4.168-8.1h-0.068l-18.382-37.483
			c-0.532-0.93-6.946-12.061-18.525-29.034l-0.456-0.668c-12.004-17.595-22.37-32.791-27.271-37.991
			c-5.13-5.437-8.05-6.919-8.834-7.065c-0.487,0.181-0.994,0.273-1.511,0.273c-1.914,0-3.605-1.308-4.022-3.108
			c-0.361-1.565,0.218-3.709,2.919-5.057c38.165-21.102,95.542-53.31,102.077-58.243L400,40.016v1.781c0,2.016,0,1.859,0.016,3.57
			l0.015,0.001c-0.003,0.024-0.006,0.048-0.009,0.072c-0.021,6.638,0.053,1.288,0.058,2.023c0.01,1.548,0.019,3.818,0.026,6.708
			c0.016,5.772,0.026,14.018,0.033,23.913c0.014,19.786,0.014,46.168,0.007,72.55c-0.013,52.762-0.052,105.525-0.052,105.525
			l-0.001,0.747l-0.41,0.625c-0.078,0.118-7.438,10.461-8.433,11.887 M386.596,266.046l0.374,0.927l-0.312-0.977l0.05-0.04
			c-0.022,0.003-0.043,0.006-0.061,0.008l-0.002-0.008c-0.012,0.005-0.023,0.009-0.035,0.014c-0.025,0.005-0.04,0.008-0.042,0.008
			l0.004,0.009c-0.253,0.115-0.547,0.36-0.779,0.705L386.596,266.046z M372.965,218.734c0.199,0.324,0.396,0.698,0.616,1.116
			c0.625,1.187,1.855,3.562,4.277,8.31c4.596,9.01,6.829,14.517,9.415,20.893l0.479,1.179c1.774,4.365,2.797,8.341,3.329,10.803
			c1.559-2.056,3.083-4.249,4.014-5.635c0.047-64.565,0.099-180.53-0.002-205.392c-2.565,1.635-6.498,3.987-12.546,7.522
			c-8.591,5.021-20.544,11.848-35.529,20.291c-21.294,11.998-42.796,23.926-49.463,27.619c2.747,0.941,6.307,3.717,10.617,8.286
			c5.171,5.487,15.641,20.834,27.764,38.604l0.456,0.669c12.169,17.839,18.714,29.333,18.779,29.446l0.069,0.133l17.73,36.154
			L372.965,218.734z"/>
	</g>
	<path d="M168.658,307.249c-2.883,0-6.219-0.562-10.498-1.768c-8.726-2.457-13.685-6.456-15.16-12.226
		c-0.182-0.71-0.326-1.234-0.439-1.62c-0.611,0.027-1.412,0.054-2.316,0.054c-4.393,0-7.458-0.603-9.37-1.842
		c-2.894-1.874-6.43-6.907-10.51-14.959c-0.671-1.326-1.035-2.607-1.211-3.77c-0.66,0.166-1.402,0.264-2.236,0.264
		c-2.771,0-5.636-1.099-7.552-2.021c-4.403-2.122-9.516-7.9-11.012-16.028c-0.436-2.366-0.588-4.571-0.63-6.386
		c-2.96,0.771-6.944,0.02-10.973-2.061c-6.142-3.171-7.15-7.816-8.427-13.698c-0.122-0.561-0.249-1.144-0.384-1.749
		c-1.798-8.024,3.599-14.355,3.83-14.621l1.083-1.247l1.572,0.508c0.202,0.064,4.994,1.617,9.872,3.752
		c5.35,2.338,8.34,7.045,10.523,10.481l0.223,0.351c0.17,0.268,0.323,0.528,0.461,0.781c2.367-2.076,7.025-6.094,10.96-9.066
		c2.418-1.829,5.011-2.757,7.706-2.757c3.197,0,5.948,1.279,8.159,2.307l0.379,0.177c5.474,2.532,8.969,7.838,9.349,14.193
		c0.034,0.572,0.054,1.111,0.063,1.619c0.988-0.522,1.859-0.909,2.327-1.107l0.252-0.107l0.269-0.05
		c2.011-0.373,3.543-0.547,4.824-0.547c4.502,0,6.362,2.21,8.936,5.269c0.62,0.737,1.322,1.571,2.163,2.506
		c4.327,4.807,4.016,12.008,3.36,16.166c5.88,0.48,8.246,4.415,11.19,9.313c3.782,6.296,1.634,12.843-0.262,18.619l-0.465,1.426
		c-1.157,3.6-1.038,3.982-0.643,5.253c0.156,0.501,0.355,1.143,0.547,1.999l6.215,5.573l-1.228,1.808
		C177.256,305.495,173.573,307.249,168.658,307.249z M143.971,286.545c2.476,0,3.063,2.296,3.875,5.473
		c0.995,3.891,4.812,6.72,11.671,8.651c7.422,2.091,11.804,2.145,14.471,0.139l-3.959-3.55l-0.154-0.842
		c-0.184-1.008-0.393-1.68-0.578-2.272c-0.729-2.344-0.85-3.582,0.657-8.269l0.474-1.455c1.712-5.219,3.331-10.149,0.727-14.484
		c-3.098-5.154-4.363-6.938-8.149-6.938c-0.485,0-1.02,0.031-1.588,0.092l-3.727,0.396l1.065-3.593
		c0.027-0.094,2.801-9.799-1.582-14.668c-0.883-0.981-1.621-1.857-2.271-2.631c-2.471-2.936-3.002-3.488-5.111-3.488
		c-0.914,0-2.075,0.132-3.637,0.413c-2.005,0.883-4.106,2.154-4.498,2.732l-0.222,0.349c-0.247,0.394-0.901,1.438-2.303,1.438
		h-1.191l-0.754-0.928c-0.763-0.939-0.549-1.954-0.458-2.387c0.136-0.645,0.549-2.606,0.338-6.126
		c-0.397-6.648-5.043-9.301-6.457-9.955l-0.387-0.18c-1.947-0.904-3.96-1.841-6.051-1.841c-1.604,0-3.138,0.571-4.691,1.746
		c-4.413,3.333-9.959,8.197-11.66,9.703c-0.34,0.947-1.001,2.218-2.217,2.831c-0.431,0.217-0.853,0.321-1.291,0.321h-1.057
		l-0.798-0.782c-0.79-0.813-0.761-1.785-0.747-2.252c0.016-0.52,0.042-1.388-0.883-2.84l-0.226-0.355
		c-1.939-3.054-4.354-6.854-8.305-8.581c-2.928-1.281-5.877-2.359-7.673-2.987c-1.088,1.781-2.646,5.158-1.802,8.922
		c0.138,0.616,0.267,1.21,0.391,1.781c1.226,5.647,1.786,8.226,5.834,10.315c2.254,1.164,4.456,1.805,6.199,1.805
		c1.107,0,1.964-0.28,2.183-0.713c0.311-0.613,1.038-2.049,2.703-2.049h1.054l0.778,0.773c0.848,0.87,0.824,1.829,0.78,3.57
		c-0.048,1.879-0.127,5.023,0.531,8.597c1.173,6.369,5.106,10.908,8.264,12.43c2.044,0.983,3.956,1.525,5.383,1.525
		c1.36,0,1.896-0.476,2.181-0.833l0.102-0.128c0.813-1.021,1.4-1.759,2.671-1.759h1.197l0.766,0.94
		c0.779,0.968,0.551,2.014,0.428,2.575c-0.198,0.906-0.663,3.03,0.563,5.451c3.468,6.844,6.746,11.712,8.768,13.021
		c0.376,0.244,1.965,1.038,6.651,1.038c1.226,0,2.262-0.055,2.818-0.084c0.167-0.009,0.301-0.016,0.399-0.019
		C143.648,286.559,143.812,286.545,143.971,286.545z"/>
	<path d="M145.886,262.525c-0.286,0-0.572-0.018-0.859-0.055c-6.784-0.869-8.049-4.953-8.702-8.714
		c-0.705-4.074,4.759-10.812,7.142-13.52l0.765-0.869l1.158,0.021c0.318,0.006,7.851,0.267,12.382,11.085l0.459,1.095l-0.559,1.048
		C157.129,253.631,152.202,262.525,145.886,262.525z M146.292,244.631c-2.801,3.396-5.107,7.15-5.038,8.299
		c0.507,2.915,0.856,4.127,4.406,4.582c2.164,0.284,5.214-3.298,7.002-6.212C150.439,246.663,147.747,245.134,146.292,244.631z"/>
	<path d="M159.522,284.521c-0.331,0-0.665-0.021-1.002-0.064c-6.997-0.896-7.72-5.066-8.301-8.419
		c-0.75-4.307,4.426-10.18,6.03-11.879l0.758-0.804l1.105,0.02c0.318,0.006,7.851,0.267,12.381,11.083l0.477,1.14l-0.615,1.07
		C169.895,277.471,165.671,284.521,159.522,284.521z M158.983,268.596c-2.222,2.594-4.004,5.556-3.85,6.514
		c0.558,3.214,0.687,3.961,4.023,4.388c0.124,0.016,0.246,0.023,0.366,0.023c2.149,0,4.512-2.474,5.828-4.313
		C163.104,270.568,160.395,269.073,158.983,268.596z"/>
	<path d="M121.899,248.305c-0.26,0-0.519-0.017-0.777-0.05c-6.726-0.86-7.33-4.483-7.862-7.68l-0.1-0.592
		c-0.68-3.916,4.667-12.152,6.997-15.512l0.763-1.1l1.337,0.024c0.318,0.006,7.85,0.268,12.379,11.083l0.451,1.077l-0.536,1.037
		C133.539,238.549,128.176,248.305,121.899,248.305z M123.332,228.701c-2.97,4.507-5.334,9.175-5.242,10.458l0.101,0.594
		c0.466,2.795,0.526,3.153,3.565,3.543c0.047,0.006,0.095,0.009,0.143,0.009c2.111,0,5.568-4.341,7.644-7.969
		C127.402,230.856,124.823,229.265,123.332,228.701z"/>
	<path fill="none" stroke="#000000" stroke-width="5" stroke-miterlimit="10" d="M112.909,207.465"/>
</g>
</svg>
